<svg width="121" height="36" viewBox="0 0 121 36" fill="none" xmlns="http://www.w3.org/2000/svg">
<g clip-path="url(#clip0_1285_1190)">
<path fill-rule="evenodd" clip-rule="evenodd" d="M17.0917 0.106654C11.1317 0.759066 6.03682 3.78251 2.90691 8.52442C2.45904 9.20284 1.96745 10.0412 1.81425 10.3872L1.53594 11.0164L9.22502 11.0143L16.9139 11.0119L18.1225 8.83602L19.331 6.65997L15.286 6.61484L11.241 6.5697L12.3002 6.03709C14.2927 5.03515 15.9883 4.60441 18.3098 4.5101C19.6191 4.45708 20.8973 4.50423 21.6866 4.63495C26.7807 5.47798 31.2402 9.15887 32.8258 13.8291C33.116 14.6839 33.3535 15.4957 33.3535 15.633C33.3535 15.8493 32.513 15.8827 27.0574 15.8827H20.7613L19.7501 17.7704C19.194 18.8088 18.6683 19.73 18.5817 19.8176C18.4953 19.9054 18.4246 20.0374 18.4246 20.1113C18.4246 20.1851 21.7836 20.2455 25.889 20.2455C32.1551 20.2455 33.3535 20.2831 33.3535 20.4796C33.3535 20.6083 33.1843 21.2312 32.9776 21.864C30.2806 30.1186 20.5843 34.038 12.5483 30.1215L11.049 29.3907L13.9815 29.342L16.9139 29.2934L18.0247 27.2937C18.6357 26.1939 19.1355 25.2153 19.1355 25.119C19.1355 25.0008 17.1169 24.944 12.9226 24.944H6.70968L6.27124 24.2308C5.79618 23.4579 5.19831 21.8784 5.00175 20.877L4.87876 20.25L10.8899 20.2058L16.901 20.1616L18.0181 18.1524C18.6327 17.0472 19.1355 16.0845 19.1355 16.0129C19.1355 15.9412 14.8649 15.8827 9.64516 15.8827H0.155014L0.039671 17.0153C-0.102331 18.4108 0.146661 20.7283 0.630251 22.5108C2.52462 29.4954 8.7002 34.7619 16.2919 35.8663C18.2252 36.1476 22.0674 35.9697 23.8452 35.5165C31.0894 33.6695 36.5077 28.225 37.8753 21.4183C38.2322 19.6413 38.2301 16.476 37.8705 14.6868C36.4208 7.47096 30.5644 1.86857 22.9077 0.372955C21.3148 0.061683 18.6261 -0.0613155 17.0917 0.106654ZM50.1145 7.91295C46.5773 8.63886 43.5041 11.2527 42.2104 14.6356C41.6774 16.0292 41.5528 19.0674 41.9671 20.5665C42.7853 23.5279 44.8868 25.9914 47.7156 27.3063C49.8977 28.3206 50.0971 28.3441 57.213 28.4235L63.7444 28.4963V26.3845V24.2728H58.0057C53.4597 24.2728 52.0528 24.2201 51.2361 24.0192C49.1625 23.5093 47.7693 22.3833 46.8051 20.438C46.327 19.4735 46.2584 19.1567 46.273 17.9841C46.2854 16.9773 46.3899 16.4262 46.6873 15.7988C47.6141 13.8437 49.1031 12.572 51.0371 12.0838C51.6934 11.918 53.4702 11.859 57.8351 11.8575L63.7444 11.8554V9.75793V7.66041L57.4796 7.67366C52.9404 7.6834 50.9118 7.74934 50.1145 7.91295ZM66.0548 18.0641V28.4678H68.2764H70.498V18.0641V7.66041H68.2764H66.0548V18.0641ZM81.428 7.83475C77.4605 8.60261 73.9791 11.7846 73.0608 15.4821C72.8518 16.3238 72.7947 17.1622 72.8509 18.5675C72.9168 20.2165 73.0066 20.685 73.4672 21.7878C74.7003 24.7396 77.166 26.9391 80.4283 27.9973C81.4241 28.3203 81.9623 28.378 83.9162 28.3716C86.0021 28.3649 86.3562 28.3185 87.5596 27.8931C93.9392 25.6385 96.7463 19.1365 93.8313 13.3657C92.5792 10.8871 89.571 8.60748 86.6596 7.93141C85.4231 7.64413 82.6748 7.59345 81.428 7.83475ZM97.1567 9.73578V11.8361L103.51 11.8877C109.739 11.9383 109.882 11.9471 110.787 12.3333C111.969 12.8381 113.551 14.3944 114.176 15.6677C114.807 16.9521 114.833 18.8424 114.239 20.2794C113.776 21.399 112.546 22.7599 111.445 23.3688C109.953 24.1944 109.256 24.2686 102.972 24.2707L97.1457 24.2728L97.1956 26.3283L97.2455 28.3839L103.733 28.3824C109.544 28.3809 110.331 28.3483 111.286 28.0698C114.937 27.0047 117.72 24.4263 118.885 21.0298C119.435 19.4251 119.397 16.5497 118.803 14.8482C117.962 12.4424 115.961 10.1551 113.628 8.93503C111.442 7.79146 111.292 7.77233 103.866 7.70051L97.1567 7.63557V9.73578ZM86.4932 12.376C87.7803 12.944 88.9988 14.088 89.7187 15.4043C90.2485 16.373 90.302 16.6074 90.307 17.9802C90.312 19.332 90.2544 19.6047 89.758 20.5811C89.0508 21.9719 87.9562 23.0067 86.4932 23.6673C85.48 24.1248 85.1517 24.1889 83.8232 24.1889C82.4704 24.1889 82.1818 24.13 81.1245 23.6383C79.116 22.7045 77.7666 20.9629 77.3903 18.8189C76.9348 16.223 78.8448 13.2185 81.6058 12.1884C82.9085 11.7024 85.1629 11.7888 86.4932 12.376ZM52.1923 17.9802V20.0777H57.9684H63.7444V17.9802V15.8827H57.9684H52.1923V17.9802ZM97.1567 17.9802V20.0777H102.933H108.709V17.9802V15.8827H102.933H97.1567V17.9802Z" fill="#00FFFF"/>
<path fill-rule="evenodd" clip-rule="evenodd" d="M17.1002 0.106654C11.1112 0.762254 6.07235 3.76573 2.8797 8.58332C2.45156 9.22935 1.97597 10.0412 1.82277 10.3872L1.54446 11.0164L9.23354 11.0129L16.9225 11.0094L18.0332 9.00651C18.6443 7.90489 19.144 6.92628 19.144 6.8318C19.144 6.72105 17.74 6.64403 15.1967 6.61484L11.2495 6.5697L12.3087 6.03709C14.3012 5.03515 15.9969 4.60441 18.3183 4.5101C19.6276 4.45708 20.9058 4.50423 21.6951 4.63495C26.7892 5.47798 31.2487 9.15887 32.8343 13.8291C33.1246 14.6839 33.362 15.4957 33.362 15.633C33.362 15.8493 32.5215 15.8827 27.0659 15.8827H20.7698L19.7586 17.7704C19.2025 18.8088 18.6768 19.73 18.5902 19.8176C18.5039 19.9054 18.4331 20.0374 18.4331 20.1113C18.4331 20.1851 21.7921 20.2455 25.8976 20.2455C32.1636 20.2455 33.362 20.2831 33.362 20.4796C33.362 20.6083 33.1928 21.2312 32.9861 21.864C30.2891 30.1186 20.5928 34.038 12.5568 30.1215L11.0575 29.3907L13.99 29.342L16.9225 29.2934L18.0332 27.2937C18.6443 26.1939 19.144 25.2153 19.144 25.119C19.144 25.0008 17.1254 24.944 12.9311 24.944H6.7182L6.27976 24.2308C5.8047 23.4579 5.20683 21.8784 5.01027 20.877L4.88728 20.25L10.8876 20.2058L16.888 20.1616L18.016 18.1586C18.6364 17.0568 19.144 16.0941 19.144 16.0191C19.144 15.9441 14.8756 15.8827 9.65866 15.8827H0.173309L0.0567219 17.0153C-0.0875907 18.4183 0.158025 20.7387 0.638771 22.5108C2.53314 29.4954 8.70872 34.7619 16.3004 35.8663C18.2337 36.1476 22.0759 35.9697 23.8537 35.5165C31.098 33.6695 36.5163 28.225 37.8839 21.4183C38.2407 19.6413 38.2386 16.476 37.8791 14.6868C36.4294 7.47096 30.573 1.86857 22.9162 0.372955C21.3233 0.061683 18.6347 -0.0613155 17.1002 0.106654ZM50.1051 7.9163C47.9239 8.3635 45.617 9.7294 44.1542 11.4398C42.4699 13.4088 41.7151 15.4494 41.7151 18.0332C41.7151 19.9735 42.0559 21.2881 42.9822 22.9193C44.1335 24.9468 45.6337 26.3347 47.7241 27.3063C49.9062 28.3206 50.1056 28.3441 57.2216 28.4235L63.7529 28.4963V26.3845V24.2728H58.0142C53.4682 24.2728 52.0613 24.2201 51.2447 24.0192C49.171 23.5093 47.7778 22.3833 46.8136 20.438C46.3379 19.4782 46.2662 19.1511 46.2764 17.9841C46.2863 16.8309 46.3693 16.4762 46.8552 15.5108C47.559 14.112 48.5918 13.0978 49.9795 12.4427L51.0456 11.9393L57.3993 11.8877L63.7529 11.8361V9.74819V7.66041L57.4881 7.67366C52.9021 7.68356 50.9237 7.7485 50.1051 7.9163ZM66.0634 18.0641V28.4678H68.2849H70.5065V18.0641V7.66041H68.2849H66.0634V18.0641ZM81.4366 7.83475C77.469 8.60261 73.9876 11.7846 73.0693 15.4821C72.8603 16.3238 72.8032 17.1622 72.8594 18.5675C72.9253 20.2165 73.0151 20.685 73.4757 21.7878C74.7088 24.7396 77.1746 26.9391 80.4369 27.9973C81.4327 28.3203 81.9708 28.378 83.9247 28.3716C86.0107 28.3649 86.3647 28.3185 87.5681 27.8931C93.9477 25.6385 96.7548 19.1365 93.8398 13.3657C92.5877 10.8871 89.5796 8.60748 86.6681 7.93141C85.4316 7.64413 82.6833 7.59345 81.4366 7.83475ZM97.1652 9.73578V11.8361L103.519 11.8877C109.748 11.9383 109.891 11.9471 110.795 12.3333C111.977 12.8381 113.559 14.3944 114.185 15.6677C114.815 16.9521 114.841 18.8424 114.248 20.2794C113.785 21.399 112.554 22.7599 111.454 23.3688C109.962 24.1944 109.265 24.2686 102.98 24.2707L97.1542 24.2728L97.2041 26.3283L97.2541 28.3839L103.741 28.3824C109.552 28.3809 110.339 28.3483 111.294 28.0698C114.945 27.0047 117.728 24.4263 118.893 21.0298C119.444 19.4251 119.405 16.5497 118.811 14.8482C117.971 12.4424 115.969 10.1551 113.637 8.93503C111.45 7.79146 111.3 7.77233 103.874 7.70051L97.1652 7.63557V9.73578ZM86.5017 12.376C87.7888 12.944 89.0073 14.088 89.7273 15.4043C90.2571 16.373 90.3105 16.6074 90.3155 17.9802C90.3205 19.332 90.2629 19.6047 89.7665 20.5811C89.0594 21.9719 87.9648 23.0067 86.5017 23.6673C85.4885 24.1248 85.1603 24.1889 83.8318 24.1889C82.4789 24.1889 82.1903 24.13 81.133 23.6383C79.1245 22.7045 77.7751 20.9629 77.3988 18.8189C76.9433 16.223 78.8533 13.2185 81.6143 12.1884C82.917 11.7024 85.1715 11.7888 86.5017 12.376ZM52.2008 17.9802V20.0777H57.9769H63.7529V17.9802V15.8827H57.9769H52.2008V17.9802ZM97.1652 17.9802V20.0777H102.941H108.717V17.9802V15.8827H102.941H97.1652V17.9802Z" fill="#00CCCC"/>
<path fill-rule="evenodd" clip-rule="evenodd" d="M17.1002 0.106654C11.1112 0.762254 6.07235 3.76573 2.8797 8.58332C2.45156 9.22935 1.97597 10.0412 1.82277 10.3872L1.54446 11.0164L9.23354 11.0129L16.9225 11.0094L18.0332 9.00651C18.6443 7.90489 19.144 6.92628 19.144 6.8318C19.144 6.72105 17.74 6.64403 15.1967 6.61484L11.2495 6.5697L12.3087 6.03709C14.3012 5.03515 15.9969 4.60441 18.3183 4.5101C19.6276 4.45708 20.9058 4.50423 21.6951 4.63495C26.7892 5.47798 31.2487 9.15887 32.8343 13.8291C33.1246 14.6839 33.362 15.4957 33.362 15.633C33.362 15.8493 32.5215 15.8827 27.0659 15.8827H20.7698L19.7586 17.7704C19.2025 18.8088 18.6768 19.73 18.5902 19.8176C18.5039 19.9054 18.4331 20.0374 18.4331 20.1113C18.4331 20.1851 21.7921 20.2455 25.8976 20.2455C32.1636 20.2455 33.362 20.2831 33.362 20.4796C33.362 20.6083 33.1928 21.2312 32.9861 21.864C30.2891 30.1186 20.5928 34.038 12.5568 30.1215L11.0575 29.3907L13.99 29.3432L16.9225 29.2956L18.0396 27.2457C18.6542 26.1181 19.154 25.1389 19.1504 25.0698C19.1469 25.0007 16.3482 24.944 12.9311 24.944H6.7182L6.27762 24.2308C5.8063 23.4681 4.92603 21.0787 4.92603 20.562C4.92603 20.265 5.21216 20.2479 10.8979 20.2058L16.87 20.1616L18.0069 18.1616C18.6323 17.0615 19.144 16.0986 19.144 16.0221C19.144 15.9454 14.8756 15.8827 9.65866 15.8827H0.173309L0.0567219 17.0153C-0.0875907 18.4183 0.158025 20.7387 0.638771 22.5108C2.53314 29.4954 8.70872 34.7619 16.3004 35.8663C18.2337 36.1476 22.0759 35.9697 23.8537 35.5165C31.098 33.6695 36.5163 28.225 37.8839 21.4183C38.2407 19.6413 38.2386 16.476 37.8791 14.6868C36.4294 7.47096 30.573 1.86857 22.9162 0.372955C21.3233 0.061683 18.6347 -0.0613155 17.1002 0.106654ZM50.0861 7.92889C46.2716 8.71672 42.9812 11.7744 41.9856 15.4565C41.6342 16.7559 41.6386 19.3275 41.9945 20.6409C42.316 21.8267 43.4386 23.8912 44.2377 24.7651C45.1238 25.7343 46.4996 26.7373 47.7241 27.3063C49.9062 28.3206 50.1056 28.3441 57.2216 28.4235L63.7529 28.4963V26.3845V24.2728H58.0745C54.6085 24.2728 52.0292 24.2004 51.4542 24.087C49.4187 23.6855 47.7933 22.4078 46.8072 20.434C46.3212 19.461 46.2543 19.1555 46.2707 17.9802C46.2865 16.8403 46.3748 16.4676 46.8559 15.5108C47.5587 14.1124 48.5914 13.098 49.9795 12.4427L51.0456 11.9393L57.3993 11.8877L63.7529 11.8361V9.74819V7.66041L57.4881 7.67719C52.836 7.68977 50.9306 7.75454 50.0861 7.92889ZM66.0634 18.0641V28.4678H68.2849H70.5065V18.0641V7.66041H68.2849H66.0634V18.0641ZM81.4366 7.83475C77.469 8.60261 73.9876 11.7846 73.0693 15.4821C72.8603 16.3238 72.8032 17.1622 72.8594 18.5675C72.9253 20.2165 73.0151 20.685 73.4757 21.7878C74.7088 24.7396 77.1746 26.9391 80.4369 27.9973C81.4327 28.3203 81.9708 28.378 83.9247 28.3716C86.0107 28.3649 86.3647 28.3185 87.5681 27.8931C93.9477 25.6385 96.7548 19.1365 93.8398 13.3657C92.5877 10.8871 89.5796 8.60748 86.6681 7.93141C85.4316 7.64413 82.6833 7.59345 81.4366 7.83475ZM97.1652 9.73578V11.8361L103.519 11.8877C109.748 11.9383 109.891 11.9471 110.795 12.3333C111.977 12.8381 113.559 14.3944 114.185 15.6677C114.815 16.9521 114.841 18.8424 114.248 20.2794C113.785 21.399 112.554 22.7599 111.454 23.3688C109.962 24.1944 109.265 24.2686 102.98 24.2707L97.1542 24.2728L97.2041 26.3283L97.2541 28.3839L103.741 28.3824C109.552 28.3809 110.339 28.3483 111.294 28.0698C114.945 27.0047 117.728 24.4263 118.893 21.0298C119.444 19.4251 119.405 16.5497 118.811 14.8482C117.971 12.4424 115.969 10.1551 113.637 8.93503C111.45 7.79146 111.3 7.77233 103.874 7.70051L97.1652 7.63557V9.73578ZM86.5017 12.376C87.7888 12.944 89.0073 14.088 89.7273 15.4043C90.2571 16.373 90.3105 16.6074 90.3155 17.9802C90.3205 19.332 90.2629 19.6047 89.7665 20.5811C89.0594 21.9719 87.9648 23.0067 86.5017 23.6673C85.4885 24.1248 85.1603 24.1889 83.8318 24.1889C82.4789 24.1889 82.1903 24.13 81.133 23.6383C79.1245 22.7045 77.7751 20.9629 77.3988 18.8189C76.9433 16.223 78.8533 13.2185 81.6143 12.1884C82.917 11.7024 85.1715 11.7888 86.5017 12.376ZM52.3194 15.9946C52.2542 16.056 52.2008 16.9999 52.2008 18.0921V20.0777H57.9769H63.7529V17.9802V15.8827H58.0954C54.9836 15.8827 52.3844 15.933 52.3194 15.9946ZM97.1652 17.9802V20.0777H102.941H108.717V17.9802V15.8827H102.941H97.1652V17.9802Z" fill="#00ACA7"/>
<path fill-rule="evenodd" clip-rule="evenodd" d="M17.0873 0.106654C14.3106 0.410542 11.6125 1.25777 9.3563 2.53424C7.80796 3.41033 5.66176 5.08449 4.77438 6.10824L4.15625 6.8214H7.47562H10.7948L12.075 6.16076C14.2315 5.0479 15.8916 4.6081 18.3055 4.5101C19.6148 4.45708 20.893 4.50423 21.6822 4.63495C26.7764 5.47798 31.2358 9.15887 32.8215 13.8291C33.1117 14.6839 33.3492 15.4957 33.3492 15.633C33.3492 15.8493 32.5087 15.8827 27.0531 15.8827H20.757L19.7457 17.7704C19.1896 18.8088 18.6639 19.73 18.5774 19.8176C18.491 19.9054 18.4203 20.0374 18.4203 20.1113C18.4203 20.1851 21.7793 20.2455 25.8847 20.2455C32.1508 20.2455 33.3492 20.2831 33.3492 20.4796C33.3492 20.6083 33.18 21.2312 32.9733 21.864C31.4263 26.5983 27.5646 30.0668 22.52 31.2525C19.1169 32.0522 15.6444 31.6458 12.4117 30.0695L10.8321 29.2993L7.50459 29.3449L4.17687 29.3907L5.58587 30.7081C8.62496 33.5497 12.1965 35.2711 16.2876 35.8663C18.2209 36.1476 22.0631 35.9697 23.8409 35.5165C31.0851 33.6695 36.5034 28.225 37.871 21.4183C38.2279 19.6413 38.2257 16.476 37.8662 14.6868C36.4165 7.47096 30.5601 1.86857 22.9034 0.372955C21.3104 0.061683 18.6218 -0.0613155 17.0873 0.106654ZM66.0505 18.0641V28.4678H68.2721H70.4936V18.0641V7.66041H68.2721H66.0505V18.0641ZM81.4237 7.83475C77.4562 8.60261 73.9747 11.7846 73.0564 15.4821C72.8474 16.3238 72.7904 17.1622 72.8465 18.5675C72.9125 20.2165 73.0022 20.685 73.4629 21.7878C74.6959 24.7396 77.1617 26.9391 80.424 27.9973C81.4198 28.3203 81.958 28.378 83.9119 28.3716C85.9978 28.3649 86.3518 28.3185 87.5552 27.8931C93.9348 25.6385 96.742 19.1365 93.827 13.3657C92.5749 10.8871 89.5667 8.60748 86.6552 7.93141C85.4188 7.64413 82.6705 7.59345 81.4237 7.83475ZM97.1524 9.73578V11.8361L103.506 11.8877C109.735 11.9383 109.878 11.9471 110.782 12.3333C111.964 12.8381 113.547 14.3944 114.172 15.6677C114.803 16.9521 114.828 18.8424 114.235 20.2794C113.772 21.399 112.542 22.7599 111.441 23.3688C109.949 24.1944 109.252 24.2686 102.967 24.2707L97.1413 24.2728L97.1913 26.3283L97.2412 28.3839L103.728 28.3824C109.54 28.3809 110.326 28.3483 111.281 28.0698C114.932 27.0047 117.715 24.4263 118.88 21.0298C119.431 19.4251 119.392 16.5497 118.798 14.8482C117.958 12.4424 115.957 10.1551 113.624 8.93503C111.438 7.79146 111.287 7.77233 103.861 7.70051L97.1524 7.63557V9.73578ZM86.4889 12.376C87.776 12.944 88.9944 14.088 89.7144 15.4043C90.2442 16.373 90.2977 16.6074 90.3027 17.9802C90.3076 19.332 90.2501 19.6047 89.7537 20.5811C89.0465 21.9719 87.9519 23.0067 86.4889 23.6673C85.4757 24.1248 85.1474 24.1889 83.8189 24.1889C82.4661 24.1889 82.1774 24.13 81.1202 23.6383C79.1117 22.7045 77.7622 20.9629 77.386 18.8189C76.9305 16.223 78.8405 13.2185 81.6014 12.1884C82.9042 11.7024 85.1586 11.7888 86.4889 12.376ZM97.1524 17.9802V20.0777H102.928H108.704V17.9802V15.8827H102.928H97.1524V17.9802Z" fill="#008080"/>
<path fill-rule="evenodd" clip-rule="evenodd" d="M17.0825 0.106654C13.2115 0.530353 9.82425 1.89961 6.8271 4.25236C5.59938 5.21621 4.37521 6.44804 4.37521 6.71971C4.37521 6.77559 5.81851 6.8214 7.58261 6.8214H10.79L12.0702 6.16076C14.2267 5.0479 15.8868 4.6081 18.3007 4.5101C19.61 4.45708 20.8882 4.50423 21.6774 4.63495C26.7716 5.47798 31.231 9.15887 32.8167 13.8291C33.1069 14.6839 33.3444 15.4957 33.3444 15.633C33.3444 15.8493 32.5039 15.8827 27.0483 15.8827H20.7522L19.7409 17.7704C19.1848 18.8088 18.6591 19.73 18.5726 19.8176C18.4862 19.9054 18.4155 20.0374 18.4155 20.1113C18.4155 20.1851 21.7745 20.2455 25.8799 20.2455C32.146 20.2455 33.3444 20.2831 33.3444 20.4796C33.3444 20.6083 33.1752 21.2312 32.9685 21.864C31.4256 26.5861 27.583 30.0453 22.5387 31.2535C19.1738 32.0594 15.6438 31.6478 12.4148 30.0733L10.843 29.3068H7.49961H4.15625L4.75447 29.9364C7.3162 32.6325 10.6613 34.5558 14.5094 35.545C15.815 35.8808 16.4313 35.9324 19.1264 35.9324C21.8214 35.9324 22.4377 35.8808 23.7433 35.545C31.1 33.6539 36.4913 28.2611 37.8662 21.4183C38.2231 19.6413 38.2209 16.476 37.8614 14.6868C36.4126 7.47499 30.5511 1.86773 22.8986 0.372955C21.3056 0.061683 18.617 -0.0613155 17.0825 0.106654ZM66.0457 18.0641V28.4678H68.2673H70.4888V18.0641V7.66041H68.2673H66.0457V18.0641ZM81.4189 7.83475C79.4133 8.22288 77.0689 9.49129 75.6528 10.9543C73.5496 13.127 72.6983 15.4472 72.8382 18.6259C72.9075 20.1987 73.0065 20.7031 73.459 21.7878C74.6899 24.7391 77.1617 26.9437 80.4192 27.9956C81.3955 28.3109 81.9761 28.3758 83.8182 28.3765C85.7954 28.3772 86.1954 28.3257 87.4548 27.9083C93.8577 25.7867 96.7544 19.1708 93.8222 13.3657C92.5701 10.8871 89.5619 8.60748 86.6504 7.93141C85.414 7.64413 82.6657 7.59345 81.4189 7.83475ZM97.1476 9.73578V11.8361L103.501 11.8877C110.918 11.9479 110.912 11.9469 112.695 13.7125C114.12 15.1222 114.646 16.2797 114.635 17.9802C114.622 20.2287 113.513 22.1744 111.634 23.25C109.971 24.2013 109.4 24.2686 102.963 24.2707L97.1365 24.2728L97.1865 26.3283L97.2364 28.3839L103.723 28.3824C109.535 28.3809 110.321 28.3483 111.277 28.0698C114.928 27.0047 117.711 24.4263 118.875 21.0298C119.426 19.4251 119.388 16.5497 118.793 14.8482C117.953 12.4424 115.952 10.1551 113.619 8.93503C111.433 7.79146 111.283 7.77233 103.857 7.70051L97.1476 7.63557V9.73578ZM86.4841 12.376C87.7712 12.944 88.9896 14.088 89.7096 15.4043C90.2394 16.373 90.2929 16.6074 90.2979 17.9802C90.3028 19.332 90.2453 19.6047 89.7489 20.5811C89.0417 21.9719 87.9471 23.0067 86.4841 23.6673C85.4709 24.1248 85.1426 24.1889 83.8141 24.1889C82.4613 24.1889 82.1726 24.13 81.1154 23.6383C79.1069 22.7045 77.7574 20.9629 77.3812 18.8189C76.9257 16.223 78.8357 13.2185 81.5966 12.1884C82.8994 11.7024 85.1538 11.7888 86.4841 12.376ZM97.1476 17.9802V20.0777H102.924H108.7V17.9802V15.8827H102.924H97.1476V17.9802Z" fill="#808080"/>
<path fill-rule="evenodd" clip-rule="evenodd" d="M17.0902 0.105098C13.2191 0.528797 9.83187 1.89806 6.83472 4.2508C5.607 5.21465 4.38283 6.44649 4.38283 6.71816C4.38283 6.77403 5.80232 6.82035 7.53744 6.82102L10.6921 6.82219L12.4693 5.98285C14.8862 4.84146 16.5225 4.46995 19.118 4.47314C22.2465 4.47717 24.7766 5.19502 27.2448 6.77924C28.6328 7.67009 30.7933 9.84547 31.6234 11.1884C32.2401 12.186 33.352 15.0438 33.352 15.6314C33.352 15.8477 32.5115 15.8811 27.0559 15.8811H20.7598L19.7486 17.7689C19.1925 18.8072 18.6667 19.7285 18.5802 19.8161C18.4938 19.9038 18.4231 20.0359 18.4231 20.1097C18.4231 20.1836 21.7821 20.244 25.8875 20.244C32.1536 20.244 33.352 20.2816 33.352 20.478C33.352 20.6068 33.1828 21.2296 32.9761 21.8624C31.4333 26.5845 27.5907 30.0437 22.5463 31.2519C19.1781 32.0587 15.6518 31.6466 12.4146 30.0679L10.8349 29.2977L7.50741 29.3433L4.17969 29.3891L5.58869 30.7066C9.63939 34.494 14.3918 36.2131 20.1397 35.9705C24.7855 35.7743 28.8074 34.1493 32.2465 31.0792C36.1129 27.6277 38.1505 23.1654 38.1505 18.15C38.1505 12.1425 35.4621 7.06618 30.4062 3.52674C26.6491 0.896618 21.6332 -0.392266 17.0902 0.105098ZM66.0533 18.0625V28.4662H68.2749H70.4965V18.0625V7.65885H68.2749H66.0533V18.0625ZM81.6931 7.76423C77.5791 8.51246 73.9399 11.7799 73.0552 15.52C72.6204 17.3576 72.7783 20.1116 73.4078 21.6703C74.9851 25.5759 78.72 28.1711 83.1048 28.4083C88.3727 28.6934 92.9682 25.7294 94.5289 21.0395C94.8535 20.0649 94.9304 19.4592 94.9183 17.9786C94.8927 14.8218 93.8088 12.4808 91.4143 10.4106C90.1685 9.33334 88.6798 8.49215 87.2554 8.06023C86.4105 7.80417 82.5913 7.60079 81.6931 7.76423ZM97.1552 9.73422V11.8346L103.509 11.8861C110.925 11.9463 110.919 11.9453 112.703 13.7109C114.127 15.1206 114.653 16.2781 114.643 17.9786C114.629 20.2272 113.521 22.1728 111.642 23.2485C109.979 24.1997 109.408 24.267 102.97 24.2692L97.1442 24.2712L97.1941 26.3268L97.244 28.3823L103.731 28.3808C109.542 28.3793 110.329 28.3468 111.284 28.0682C114.314 27.1844 116.731 25.2976 118.095 22.7518C121.175 17.0022 118.171 10.1876 111.64 8.10906C110.662 7.79779 110.016 7.76406 103.864 7.70181L97.1552 7.63402V9.73422ZM86.614 12.408C87.8449 13.0058 89.1282 14.2496 89.7741 15.4707C90.2403 16.352 90.3025 16.6448 90.3064 17.9786C90.3105 19.3216 90.2504 19.6097 89.7643 20.5796C89.0634 21.9784 87.9785 23.0053 86.5061 23.6641C85.4813 24.1225 85.149 24.1873 83.8221 24.1873C82.4687 24.1873 82.1813 24.1286 81.1194 23.6351C78.3265 22.3368 76.7852 19.3801 77.5049 16.7012C78.0476 14.6812 79.6473 12.9189 81.6043 12.1851C82.9342 11.6866 85.3496 11.794 86.614 12.408ZM97.1552 17.9786V20.0762H102.931H108.707V17.9786V15.8811H102.931H97.1552V17.9786Z" fill="#3C3C3C"/>
</g>
<defs>
<clipPath id="clip0_1285_1190">
<rect width="121" height="36" fill="white"/>
</clipPath>
</defs>
</svg>
