<svg width="120" height="24" viewBox="0 0 120 24" fill="none" xmlns="http://www.w3.org/2000/svg">
<path fill-rule="evenodd" clip-rule="evenodd" d="M11.3944 0.0698005C7.4211 0.504742 4.02454 2.52037 1.93794 5.68164C1.63936 6.13392 1.31163 6.69281 1.2095 6.92349L1.02396 7.34299L6.15002 7.34154L11.276 7.33997L12.0816 5.88938L12.8873 4.43868L10.1906 4.40859L7.49397 4.3785L8.20013 4.02343C9.52845 3.35547 10.6589 3.0683 12.2065 3.00543C13.0794 2.97008 13.9315 3.00152 14.4577 3.08866C17.8538 3.65069 20.8268 6.10461 21.8839 9.21812C22.0774 9.78797 22.2357 10.3292 22.2357 10.4207C22.2357 10.5649 21.6753 10.5872 18.0383 10.5872H13.8409L13.1667 11.8457C12.796 12.5379 12.4455 13.1521 12.3878 13.2104C12.3302 13.269 12.2831 13.357 12.2831 13.4062C12.2831 13.4554 14.5224 13.4957 17.2594 13.4957C21.4367 13.4957 22.2357 13.5208 22.2357 13.6518C22.2357 13.7376 22.1229 14.1528 21.9851 14.5747C20.1871 20.0778 13.7229 22.6907 8.36553 20.0797L7.36601 19.5925L9.32098 19.5601L11.276 19.5276L12.0165 18.1945C12.4238 17.4613 12.757 16.8089 12.757 16.7447C12.757 16.6659 11.4113 16.628 8.61506 16.628H4.47312L4.18082 16.1526C3.86412 15.6373 3.46554 14.5843 3.3345 13.9167L3.25251 13.4987L7.25997 13.4692L11.2673 13.4398L12.0121 12.1003C12.4218 11.3635 12.757 10.7217 12.757 10.674C12.757 10.6262 9.90996 10.5872 6.43011 10.5872H0.103343L0.0264474 11.3423C-0.0682207 12.2726 0.0977743 13.8176 0.420167 15.0059C1.68308 19.6623 5.80013 23.1733 10.8613 23.9096C12.1501 24.0971 14.7116 23.9785 15.8968 23.6763C20.7263 22.445 24.3385 18.8154 25.2502 14.2776C25.4881 13.0929 25.4867 10.9827 25.247 9.78987C24.2806 4.97934 20.3763 1.24441 15.2718 0.247334C14.2098 0.0398199 12.4174 -0.0421791 11.3944 0.0698005ZM33.4097 5.274C31.0515 5.75794 29.0027 7.5005 28.1403 9.75575C27.7849 10.6848 27.7019 12.7103 27.9781 13.7097C28.5236 15.684 29.9245 17.3263 31.8104 18.2029C33.2651 18.8791 33.3981 18.8948 38.142 18.9477L42.4963 18.9962V17.5884V16.1805H38.6705C35.6398 16.1805 34.7019 16.1454 34.1574 16.0115C32.775 15.6715 31.8462 14.9209 31.2034 13.624C30.8847 12.981 30.839 12.7698 30.8487 11.9881C30.857 11.3169 30.9266 10.9495 31.1249 10.5312C31.7427 9.22785 32.7354 8.38 34.0247 8.05458C34.4623 7.94405 35.6468 7.90468 38.5567 7.90367L42.4963 7.90233V6.50398V5.10564L38.3197 5.11447C35.2936 5.12096 33.9412 5.16493 33.4097 5.274ZM44.0366 12.0414V18.9772H45.5176H46.9986V12.0414V5.10564H45.5176H44.0366V12.0414ZM54.2854 5.22187C51.6403 5.73377 49.3194 7.85512 48.7072 10.3201C48.5678 10.8813 48.5298 11.4401 48.5672 12.377C48.6112 13.4764 48.671 13.7887 48.9781 14.5239C49.8002 16.4918 51.444 17.9581 53.6189 18.6636C54.2828 18.8789 54.6415 18.9174 55.9441 18.9131C57.3348 18.9087 57.5708 18.8777 58.373 18.5941C62.6261 17.091 64.4975 12.7564 62.5542 8.90914C61.7195 7.25674 59.714 5.73702 57.773 5.2863C56.9487 5.09478 55.1165 5.061 54.2854 5.22187ZM64.7711 6.48921V7.88946L69.0069 7.92381C73.1594 7.95759 73.2548 7.96341 73.8577 8.22093C74.6457 8.55743 75.7006 9.595 76.1174 10.4439C76.5379 11.3001 76.5551 12.5603 76.1594 13.5183C75.851 14.2647 75.0306 15.1719 74.2969 15.5779C73.302 16.1283 72.8376 16.1777 68.6478 16.1792L64.7638 16.1805L64.7971 17.5509L64.8304 18.9213L69.155 18.9203C73.0293 18.9193 73.5537 18.8976 74.1905 18.7119C76.6244 18.0019 78.4799 16.2829 79.2564 14.0186C79.6233 12.9488 79.5979 11.0318 79.2017 9.89749C78.6415 8.29364 77.3072 6.76877 75.7521 5.95538C74.2946 5.193 74.1944 5.18025 69.2439 5.13237L64.7711 5.08908V6.48921ZM57.6621 8.24934C58.5202 8.62801 59.3325 9.39073 59.8125 10.2682C60.1657 10.914 60.2013 11.0703 60.2047 11.9855C60.208 12.8867 60.1696 13.0685 59.8387 13.7194C59.3672 14.6466 58.6375 15.3365 57.6621 15.7769C56.9867 16.0819 56.7678 16.1246 55.8822 16.1246C54.9803 16.1246 54.7878 16.0853 54.083 15.7576C52.744 15.135 51.8444 13.9739 51.5935 12.5446C51.2899 10.814 52.5632 8.81103 54.4038 8.12427C55.2723 7.8003 56.7753 7.85792 57.6621 8.24934ZM34.7949 11.9855V13.3838H38.6456H42.4963V11.9855V10.5872H38.6456H34.7949V11.9855ZM64.7711 11.9855V13.3838H68.6218H72.4725V11.9855V10.5872H68.6218H64.7711V11.9855Z" fill="#00FFFF"/>
<path fill-rule="evenodd" clip-rule="evenodd" d="M11.3975 0.0698005C7.40487 0.506867 4.04563 2.50919 1.9172 5.72091C1.63177 6.1516 1.31471 6.69281 1.21258 6.92349L1.02703 7.34299L6.15309 7.34064L11.279 7.33829L12.0196 6.00304C12.4269 5.26863 12.7601 4.61621 12.7601 4.55323C12.7601 4.4794 11.8241 4.42805 10.1286 4.40859L7.49705 4.3785L8.20321 4.02343C9.53152 3.35547 10.662 3.0683 12.2096 3.00543C13.0825 2.97008 13.9346 3.00152 14.4608 3.08866C17.8569 3.65069 20.8298 6.10461 21.887 9.21812C22.0804 9.78797 22.2387 10.3292 22.2387 10.4207C22.2387 10.5649 21.6784 10.5872 18.0413 10.5872H13.844L13.1698 11.8457C12.7991 12.5379 12.4486 13.1521 12.3909 13.2104C12.3333 13.269 12.2861 13.357 12.2861 13.4062C12.2861 13.4554 14.5255 13.4957 17.2624 13.4957C21.4398 13.4957 22.2387 13.5208 22.2387 13.6518C22.2387 13.7376 22.1259 14.1528 21.9881 14.5747C20.1902 20.0778 13.7259 22.6907 8.36861 20.0797L7.36908 19.5925L9.32406 19.5601L11.279 19.5276L12.0196 18.1945C12.4269 17.4613 12.7601 16.8089 12.7601 16.7447C12.7601 16.6659 11.4143 16.628 8.61814 16.628H4.4762L4.1839 16.1526C3.86719 15.6373 3.46862 14.5843 3.33757 13.9167L3.25558 13.4987L7.25581 13.4692L11.256 13.4398L12.0081 12.1044C12.4217 11.3699 12.7601 10.7281 12.7601 10.6781C12.7601 10.6281 9.91446 10.5872 6.4365 10.5872H0.112935L0.0352104 11.3423C-0.060998 12.2776 0.102746 13.8245 0.423243 15.0059C1.68616 19.6623 5.80321 23.1733 10.8643 23.9096C12.1532 24.0971 14.7147 23.9785 15.8999 23.6763C20.7294 22.445 24.3416 18.8154 25.2533 14.2776C25.4912 13.0929 25.4898 10.9827 25.2501 9.78987C24.2836 4.97934 20.3794 1.24441 15.2749 0.247334C14.2129 0.0398199 12.4205 -0.0421791 11.3975 0.0698005ZM33.4008 5.27623C31.9467 5.57436 30.4087 6.48496 29.4335 7.62523C28.3106 8.93789 27.8074 10.2983 27.8074 12.0208C27.8074 13.3144 28.0347 14.1907 28.6522 15.2782C29.4198 16.6299 30.4199 17.5552 31.8135 18.2029C33.2682 18.8791 33.4012 18.8948 38.1451 18.9477L42.4994 18.9962V17.5884V16.1805H38.6735C35.6429 16.1805 34.7049 16.1454 34.1605 16.0115C32.778 15.6715 31.8493 14.9209 31.2065 13.624C30.8893 12.9841 30.8416 12.7661 30.8483 11.9881C30.8549 11.2193 30.9103 10.9828 31.2342 10.3393C31.7034 9.40672 32.3919 8.7306 33.317 8.29386L34.0278 7.95826L38.2636 7.92381L42.4994 7.88946V6.49749V5.10564L38.3228 5.11447C35.2655 5.12107 33.9465 5.16437 33.4008 5.27623ZM44.0396 12.0414V18.9772H45.5207H47.0017V12.0414V5.10564H45.5207H44.0396V12.0414ZM54.2884 5.22187C51.6434 5.73377 49.3225 7.85512 48.7103 10.3201C48.5709 10.8813 48.5329 11.4401 48.5703 12.377C48.6143 13.4764 48.6741 13.7887 48.9812 14.5239C49.8033 16.4918 51.4471 17.9581 53.622 18.6636C54.2858 18.8789 54.6446 18.9174 55.9472 18.9131C57.3378 18.9087 57.5739 18.8777 58.3761 18.5941C62.6292 17.091 64.5006 12.7564 62.5573 8.90914C61.7225 7.25674 59.7171 5.73702 57.7761 5.2863C56.9518 5.09478 55.1196 5.061 54.2884 5.22187ZM64.7742 6.48921V7.88946L69.01 7.92381C73.1625 7.95759 73.2578 7.96341 73.8608 8.22093C74.6488 8.55743 75.7037 9.595 76.1205 10.4439C76.541 11.3001 76.5582 12.5603 76.1625 13.5183C75.854 14.2647 75.0337 15.1719 74.3 15.5779C73.3051 16.1283 72.8407 16.1777 68.6509 16.1792L64.7669 16.1805L64.8002 17.5509L64.8334 18.9213L69.1581 18.9203C73.0324 18.9193 73.5568 18.8976 74.1936 18.7119C76.6275 18.0019 78.4829 16.2829 79.2595 14.0186C79.6264 12.9488 79.601 11.0318 79.2047 9.89749C78.6446 8.29364 77.3103 6.76877 75.7552 5.95538C74.2976 5.193 74.1975 5.18025 69.2469 5.13237L64.7742 5.08908V6.48921ZM57.6652 8.24934C58.5233 8.62801 59.3356 9.39073 59.8156 10.2682C60.1688 10.914 60.2044 11.0703 60.2077 11.9855C60.2111 12.8867 60.1727 13.0685 59.8417 13.7194C59.3703 14.6466 58.6406 15.3365 57.6652 15.7769C56.9897 16.0819 56.7709 16.1246 55.8852 16.1246C54.9833 16.1246 54.7909 16.0853 54.0861 15.7576C52.7471 15.135 51.8475 13.9739 51.5966 12.5446C51.2929 10.814 52.5663 8.81103 54.4069 8.12427C55.2754 7.8003 56.7784 7.85792 57.6652 8.24934ZM34.798 11.9855V13.3838H38.6487H42.4994V11.9855V10.5872H38.6487H34.798V11.9855ZM64.7742 11.9855V13.3838H68.6249H72.4756V11.9855V10.5872H68.6249H64.7742V11.9855Z" fill="#00CCCC"/>
<path fill-rule="evenodd" clip-rule="evenodd" d="M11.3975 0.0698005C7.40487 0.506867 4.04563 2.50919 1.9172 5.72091C1.63177 6.1516 1.31471 6.69281 1.21258 6.92349L1.02703 7.34299L6.15309 7.34064L11.279 7.33829L12.0196 6.00304C12.4269 5.26863 12.7601 4.61621 12.7601 4.55323C12.7601 4.4794 11.8241 4.42805 10.1286 4.40859L7.49705 4.3785L8.20321 4.02343C9.53152 3.35547 10.662 3.0683 12.2096 3.00543C13.0825 2.97008 13.9346 3.00152 14.4608 3.08866C17.8569 3.65069 20.8298 6.10461 21.887 9.21812C22.0804 9.78797 22.2387 10.3292 22.2387 10.4207C22.2387 10.5649 21.6784 10.5872 18.0413 10.5872H13.844L13.1698 11.8457C12.7991 12.5379 12.4486 13.1521 12.3909 13.2104C12.3333 13.269 12.2861 13.357 12.2861 13.4062C12.2861 13.4554 14.5255 13.4957 17.2624 13.4957C21.4398 13.4957 22.2387 13.5208 22.2387 13.6518C22.2387 13.7376 22.1259 14.1528 21.9881 14.5747C20.1902 20.0778 13.7259 22.6907 8.36861 20.0797L7.36908 19.5925L9.32406 19.5608L11.279 19.5291L12.0238 18.1625C12.4335 17.4107 12.7667 16.758 12.7643 16.7119C12.762 16.6658 10.8962 16.628 8.61814 16.628H4.4762L4.18248 16.1526C3.86826 15.6441 3.28141 14.0511 3.28141 13.7067C3.28141 13.5087 3.47217 13.4973 7.26269 13.4692L11.2441 13.4398L12.002 12.1064C12.419 11.373 12.7601 10.7311 12.7601 10.6801C12.7601 10.629 9.91446 10.5872 6.4365 10.5872H0.112935L0.0352104 11.3423C-0.060998 12.2776 0.102746 13.8245 0.423243 15.0059C1.68616 19.6623 5.80321 23.1733 10.8643 23.9096C12.1532 24.0971 14.7147 23.9785 15.8999 23.6763C20.7294 22.445 24.3416 18.8154 25.2533 14.2776C25.4912 13.0929 25.4898 10.9827 25.2501 9.78987C24.2836 4.97934 20.3794 1.24441 15.2749 0.247334C14.2129 0.0398199 12.4205 -0.0421791 11.3975 0.0698005ZM33.3881 5.28462C30.8451 5.80984 28.6515 7.8483 27.9878 10.303C27.7535 11.1693 27.7565 12.8837 27.9937 13.7593C28.208 14.5498 28.9565 15.9261 29.4892 16.5088C30.0799 17.1549 30.9971 17.8235 31.8135 18.2029C33.2682 18.8791 33.4012 18.8948 38.1451 18.9477L42.4994 18.9962V17.5884V16.1805H38.7137C36.403 16.1805 34.6835 16.1323 34.3002 16.0567C32.9432 15.789 31.8596 14.9372 31.2022 13.6213C30.8782 12.9727 30.8336 12.769 30.8445 11.9855C30.8551 11.2256 30.914 10.9771 31.2347 10.3393C31.7032 9.40695 32.3917 8.73071 33.317 8.29386L34.0278 7.95826L38.2636 7.92381L42.4994 7.88946V6.49749V5.10564L38.3228 5.11682C35.2214 5.12521 33.9512 5.16839 33.3881 5.28462ZM44.0396 12.0414V18.9772H45.5207H47.0017V12.0414V5.10564H45.5207H44.0396V12.0414ZM54.2884 5.22187C51.6434 5.73377 49.3225 7.85512 48.7103 10.3201C48.5709 10.8813 48.5329 11.4401 48.5703 12.377C48.6143 13.4764 48.6741 13.7887 48.9812 14.5239C49.8033 16.4918 51.4471 17.9581 53.622 18.6636C54.2858 18.8789 54.6446 18.9174 55.9472 18.9131C57.3378 18.9087 57.5739 18.8777 58.3761 18.5941C62.6292 17.091 64.5006 12.7564 62.5573 8.90914C61.7225 7.25674 59.7171 5.73702 57.7761 5.2863C56.9518 5.09478 55.1196 5.061 54.2884 5.22187ZM64.7742 6.48921V7.88946L69.01 7.92381C73.1625 7.95759 73.2578 7.96341 73.8608 8.22093C74.6488 8.55743 75.7037 9.595 76.1205 10.4439C76.541 11.3001 76.5582 12.5603 76.1625 13.5183C75.854 14.2647 75.0337 15.1719 74.3 15.5779C73.3051 16.1283 72.8407 16.1777 68.6509 16.1792L64.7669 16.1805L64.8002 17.5509L64.8334 18.9213L69.1581 18.9203C73.0324 18.9193 73.5568 18.8976 74.1936 18.7119C76.6275 18.0019 78.4829 16.2829 79.2595 14.0186C79.6264 12.9488 79.601 11.0318 79.2047 9.89749C78.6446 8.29364 77.3103 6.76877 75.7552 5.95538C74.2976 5.193 74.1975 5.18025 69.2469 5.13237L64.7742 5.08908V6.48921ZM57.6652 8.24934C58.5233 8.62801 59.3356 9.39073 59.8156 10.2682C60.1688 10.914 60.2044 11.0703 60.2077 11.9855C60.2111 12.8867 60.1727 13.0685 59.8417 13.7194C59.3703 14.6466 58.6406 15.3365 57.6652 15.7769C56.9897 16.0819 56.7709 16.1246 55.8852 16.1246C54.9833 16.1246 54.7909 16.0853 54.0861 15.7576C52.7471 15.135 51.8475 13.9739 51.5966 12.5446C51.2929 10.814 52.5663 8.81103 54.4069 8.12427C55.2754 7.8003 56.7784 7.85792 57.6652 8.24934ZM34.877 10.6618C34.8335 10.7027 34.798 11.332 34.798 12.0601V13.3838H38.6487H42.4994V11.9855V10.5872H38.7277C36.6532 10.5872 34.9203 10.6207 34.877 10.6618ZM64.7742 11.9855V13.3838H68.6249H72.4756V11.9855V10.5872H68.6249H64.7742V11.9855Z" fill="#00ACA7"/>
<path fill-rule="evenodd" clip-rule="evenodd" d="M11.3942 0.0698005C9.54298 0.272393 7.74428 0.837213 6.24014 1.68819C5.20791 2.27225 3.77711 3.38836 3.18552 4.07086L2.77344 4.5463H4.98635H7.19914L8.05258 4.10587C9.49025 3.36397 10.597 3.07076 12.2062 3.00543C13.0791 2.97008 13.9312 3.00152 14.4574 3.08866C17.8535 3.65069 20.8265 6.10461 21.8836 9.21812C22.0771 9.78797 22.2354 10.3292 22.2354 10.4207C22.2354 10.5649 21.6751 10.5872 18.038 10.5872H13.8406L13.1664 11.8457C12.7957 12.5379 12.4452 13.1521 12.3875 13.2104C12.3299 13.269 12.2828 13.357 12.2828 13.4062C12.2828 13.4554 14.5221 13.4957 17.2591 13.4957C21.4364 13.4957 22.2354 13.5208 22.2354 13.6518C22.2354 13.7376 22.1226 14.1528 21.9848 14.5747C20.9535 17.7309 18.379 20.0432 15.016 20.8337C12.7472 21.3668 10.4322 21.0959 8.2771 20.045L7.22402 19.5315L5.00566 19.562L2.78718 19.5925L3.72652 20.4708C5.75258 22.3651 8.13362 23.5128 10.861 23.9096C12.1498 24.0971 14.7113 23.9785 15.8965 23.6763C20.726 22.445 24.3382 18.8154 25.2499 14.2776C25.4879 13.0929 25.4864 10.9827 25.2467 9.78987C24.2803 4.97934 20.376 1.24441 15.2715 0.247334C14.2096 0.0398199 12.4171 -0.0421791 11.3942 0.0698005ZM44.0363 12.0414V18.9772H45.5173H46.9984V12.0414V5.10564H45.5173H44.0363V12.0414ZM54.2851 5.22187C51.6401 5.73377 49.3191 7.85512 48.7069 10.3201C48.5676 10.8813 48.5295 11.4401 48.567 12.377C48.6109 13.4764 48.6708 13.7887 48.9779 14.5239C49.7999 16.4918 51.4437 17.9581 53.6186 18.6636C54.2825 18.8789 54.6412 18.9174 55.9439 18.9131C57.3345 18.9087 57.5705 18.8777 58.3728 18.5941C62.6258 17.091 64.4973 12.7564 62.5539 8.90914C61.7192 7.25674 59.7138 5.73702 57.7728 5.2863C56.9485 5.09478 55.1162 5.061 54.2851 5.22187ZM64.7708 6.48921V7.88946L69.0066 7.92381C73.1591 7.95759 73.2545 7.96341 73.8574 8.22093C74.6455 8.55743 75.7003 9.595 76.1172 10.4439C76.5377 11.3001 76.5548 12.5603 76.1591 13.5183C75.8507 14.2647 75.0303 15.1719 74.2967 15.5779C73.3018 16.1283 72.8373 16.1777 68.6475 16.1792L64.7635 16.1805L64.7968 17.5509L64.8301 18.9213L69.1547 18.9203C73.029 18.9193 73.5534 18.8976 74.1903 18.7119C76.6241 18.0019 78.4796 16.2829 79.2561 14.0186C79.6231 12.9488 79.5976 11.0318 79.2014 9.89749C78.6412 8.29364 77.307 6.76877 75.7519 5.95538C74.2943 5.193 74.1942 5.18025 69.2436 5.13237L64.7708 5.08908V6.48921ZM57.6619 8.24934C58.5199 8.62801 59.3322 9.39073 59.8122 10.2682C60.1654 10.914 60.2011 11.0703 60.2044 11.9855C60.2077 12.8867 60.1693 13.0685 59.8384 13.7194C59.3669 14.6466 58.6372 15.3365 57.6619 15.7769C56.9864 16.0819 56.7675 16.1246 55.8819 16.1246C54.98 16.1246 54.7876 16.0853 54.0827 15.7576C52.7437 15.135 51.8441 13.9739 51.5933 12.5446C51.2896 10.814 52.5629 8.81103 54.4036 8.12427C55.2721 7.8003 56.775 7.85792 57.6619 8.24934ZM64.7708 11.9855V13.3838H68.6216H72.4723V11.9855V10.5872H68.6216H64.7708V11.9855Z" fill="#008080"/>
<path fill-rule="evenodd" clip-rule="evenodd" d="M11.396 0.0698005C8.82851 0.350812 6.63894 1.22517 4.62188 2.77498C3.79202 3.41263 2.92449 4.27099 2.92449 4.45457C2.92449 4.50502 3.88669 4.5463 5.06276 4.5463H7.20102L8.05446 4.10587C9.49213 3.36397 10.5989 3.07076 12.2081 3.00543C13.081 2.97008 13.9331 3.00152 14.4593 3.08866C17.8554 3.65069 20.8284 6.10461 21.8855 9.21812C22.079 9.78797 22.2373 10.3292 22.2373 10.4207C22.2373 10.5649 21.6769 10.5872 18.0399 10.5872H13.8425L13.1683 11.8457C12.7976 12.5379 12.4471 13.1521 12.3894 13.2104C12.3318 13.269 12.2847 13.357 12.2847 13.4062C12.2847 13.4554 14.524 13.4957 17.261 13.4957C21.4383 13.4957 22.2373 13.5208 22.2373 13.6518C22.2373 13.7376 22.1245 14.1528 21.9867 14.5747C20.9554 17.7309 18.3809 20.0432 15.0178 20.8337C12.7491 21.3668 10.4341 21.0959 8.27898 20.045L7.2259 19.5315L5.00754 19.562L2.78906 19.5925L3.7284 20.4708C5.75446 22.3651 8.1355 23.5128 10.8629 23.9096C12.1517 24.0971 14.7132 23.9785 15.8984 23.6763C20.7279 22.445 24.3401 18.8154 25.2518 14.2776C25.4897 13.0929 25.4883 10.9827 25.2486 9.78987C24.2822 4.97934 20.3779 1.24441 15.2734 0.247334C14.2114 0.0398199 12.419 -0.0421791 11.396 0.0698005ZM44.0382 12.0414V18.9772H45.5192H47.0002V12.0414V5.10564H45.5192H44.0382V12.0414ZM54.287 5.22187C51.6419 5.73377 49.321 7.85512 48.7088 10.3201C48.5694 10.8813 48.5314 11.4401 48.5688 12.377C48.6128 13.4764 48.6726 13.7887 48.9797 14.5239C49.8018 16.4918 51.4456 17.9581 53.6205 18.6636C54.2844 18.8789 54.6431 18.9174 55.9457 18.9131C57.3364 18.9087 57.5724 18.8777 58.3746 18.5941C62.6277 17.091 64.4991 12.7564 62.5558 8.90914C61.7211 7.25674 59.7156 5.73702 57.7746 5.2863C56.9503 5.09478 55.1181 5.061 54.287 5.22187ZM64.7727 6.48921V7.88946L69.0085 7.92381C73.161 7.95759 73.2564 7.96341 73.8593 8.22093C74.6473 8.55743 75.7022 9.595 76.119 10.4439C76.5395 11.3001 76.5567 12.5603 76.161 13.5183C75.8526 14.2647 75.0322 15.1719 74.2985 15.5779C73.3036 16.1283 72.8392 16.1777 68.6494 16.1792L64.7654 16.1805L64.7987 17.5509L64.832 18.9213L69.1566 18.9203C73.0309 18.9193 73.5553 18.8976 74.1921 18.7119C76.626 18.0019 78.4815 16.2829 79.258 14.0186C79.6249 12.9488 79.5995 11.0318 79.2033 9.89749C78.6431 8.29364 77.3088 6.76877 75.7537 5.95538C74.2962 5.193 74.196 5.18025 69.2455 5.13237L64.7727 5.08908V6.48921ZM57.6637 8.24934C58.5218 8.62801 59.3341 9.39073 59.8141 10.2682C60.1673 10.914 60.2029 11.0703 60.2063 11.9855C60.2096 12.8867 60.1712 13.0685 59.8403 13.7194C59.3688 14.6466 58.6391 15.3365 57.6637 15.7769C56.9883 16.0819 56.7694 16.1246 55.8838 16.1246C54.9819 16.1246 54.7894 16.0853 54.0846 15.7576C52.7456 15.135 51.846 13.9739 51.5951 12.5446C51.2915 10.814 52.5648 8.81103 54.4054 8.12427C55.2739 7.8003 56.7769 7.85792 57.6637 8.24934ZM64.7727 11.9855V13.3838H68.6234H72.4741V11.9855V10.5872H68.6234H64.7727V11.9855Z" fill="white"/>
<path fill-rule="evenodd" clip-rule="evenodd" d="M11.391 0.0698005C8.81028 0.352266 6.5521 1.26511 4.554 2.8336C3.73552 3.47617 2.91941 4.29739 2.91941 4.47851C2.91941 4.51576 3.88161 4.5463 5.05768 4.5463H7.19594L8.04938 4.10587C9.48705 3.36397 10.5938 3.07076 12.203 3.00543C13.0759 2.97008 13.928 3.00152 14.4542 3.08866C17.8503 3.65069 20.8233 6.10462 21.8804 9.21812C22.0739 9.78797 22.2322 10.3292 22.2322 10.4207C22.2322 10.5649 21.6719 10.5872 18.0348 10.5872H13.8374L13.1632 11.8457C12.7925 12.5379 12.442 13.1521 12.3843 13.2105C12.3267 13.269 12.2796 13.357 12.2796 13.4062C12.2796 13.4554 14.5189 13.4957 17.2559 13.4957C21.4332 13.4957 22.2322 13.5208 22.2322 13.6518C22.2322 13.7376 22.1194 14.1528 21.9816 14.5747C20.953 17.7227 18.3913 20.0289 15.0284 20.8343C12.7852 21.3716 10.4318 21.0972 8.27912 20.0476L7.23125 19.5366H5.00234H2.77344L3.17225 19.9563C4.88007 21.7537 7.11016 23.0359 9.67556 23.6954C10.5459 23.9192 10.9568 23.9537 12.7535 23.9537C14.5502 23.9537 14.9611 23.9192 15.8315 23.6954C20.736 22.4346 24.3302 18.8394 25.2467 14.2776C25.4847 13.0929 25.4832 10.9827 25.2435 9.78987C24.2777 4.98202 20.37 1.24385 15.2683 0.247334C14.2064 0.0398199 12.4139 -0.0421791 11.391 0.0698005ZM44.0331 12.0414V18.9772H45.5141H46.9952V12.0414V5.10564H45.5141H44.0331V12.0414ZM54.2819 5.22187C52.9448 5.48062 51.3819 6.32622 50.4378 7.3016C49.0357 8.75006 48.4681 10.2969 48.5614 12.416C48.6076 13.4645 48.6736 13.8008 48.9753 14.5239C49.7959 16.4914 51.4437 17.9611 53.6154 18.6624C54.2662 18.8726 54.6533 18.9159 55.8814 18.9164C57.1995 18.9168 57.4662 18.8825 58.3058 18.6043C62.5744 17.1898 64.5056 12.7792 62.5507 8.90914C61.716 7.25674 59.7106 5.73702 57.7696 5.2863C56.9453 5.09479 55.113 5.061 54.2819 5.22187ZM64.7677 6.48922V7.88946L69.0034 7.92381C73.9476 7.96397 73.9437 7.9633 75.1328 9.14037C76.0823 10.0802 76.433 10.8518 76.4262 11.9855C76.417 13.4845 75.6782 14.7816 74.4252 15.4987C73.3168 16.1329 72.9361 16.1777 68.6443 16.1792L64.7603 16.1805L64.7936 17.5509L64.8269 18.9213L69.1515 18.9203C73.0258 18.9193 73.5502 18.8976 74.1871 18.7119C76.6209 18.0019 78.4764 16.2829 79.2529 14.0186C79.6199 12.9488 79.5944 11.0318 79.1982 9.89749C78.638 8.29364 77.3038 6.76877 75.7487 5.95538C74.2911 5.19301 74.191 5.18025 69.2404 5.13237L64.7677 5.08908V6.48922ZM57.6587 8.24934C58.5167 8.62801 59.329 9.39073 59.809 10.2682C60.1622 10.914 60.1979 11.0703 60.2012 11.9855C60.2045 12.8867 60.1661 13.0685 59.8352 13.7194C59.3637 14.6466 58.634 15.3365 57.6587 15.7769C56.9832 16.0819 56.7643 16.1246 55.8787 16.1246C54.9768 16.1246 54.7844 16.0853 54.0795 15.7576C52.7405 15.135 51.8409 13.9739 51.5901 12.5446C51.2864 10.814 52.5597 8.81103 54.4004 8.12427C55.2689 7.80031 56.7718 7.85792 57.6587 8.24934ZM64.7677 11.9855V13.3838H68.6184H72.4691V11.9855V10.5872H68.6184H64.7677V11.9855Z" fill="#808080"/>
<path fill-rule="evenodd" clip-rule="evenodd" d="M11.396 0.0700652C8.81536 0.352531 6.55718 1.26537 4.55908 2.83387C3.7406 3.47644 2.92449 4.29766 2.92449 4.47877C2.92449 4.51602 3.87081 4.5469 5.02757 4.54735L7.13064 4.54813L8.31547 3.98857C9.92673 3.22764 11.0176 2.97997 12.7479 2.98209C14.8336 2.98478 16.5203 3.46335 18.1658 4.51949C19.0912 5.1134 20.5314 6.56365 21.0849 7.45892C21.496 8.12398 22.2373 10.0292 22.2373 10.421C22.2373 10.5652 21.6769 10.5874 18.0399 10.5874H13.8425L13.1683 11.8459C12.7976 12.5382 12.4471 13.1523 12.3894 13.2107C12.3318 13.2692 12.2847 13.3573 12.2847 13.4065C12.2847 13.4557 14.524 13.496 17.261 13.496C21.4383 13.496 22.2373 13.521 22.2373 13.652C22.2373 13.7378 22.1245 14.1531 21.9867 14.5749C20.9581 17.723 18.3964 20.0292 15.0335 20.8346C12.788 21.3725 10.4372 21.0977 8.27898 20.0453L7.2259 19.5318L5.00754 19.5622L2.78906 19.5928L3.7284 20.471C6.42887 22.996 9.59711 24.1421 13.4291 23.9803C16.5262 23.8496 19.2075 22.7662 21.5003 20.7195C24.0779 18.4185 25.4363 15.4436 25.4363 12.1C25.4363 8.09501 23.644 4.71078 20.2734 2.35116C17.7687 0.597745 14.4247 -0.261511 11.396 0.0700652ZM44.0382 12.0417V18.9775H45.5192H47.0002V12.0417V5.1059H45.5192H44.0382V12.0417ZM54.4647 5.17615C51.722 5.67497 49.2959 7.85326 48.706 10.3467C48.4162 11.5717 48.5215 13.4077 48.9411 14.4469C49.9927 17.0506 52.4826 18.7807 55.4058 18.9389C58.9178 19.129 61.9814 17.1529 63.0219 14.0263C63.2383 13.3766 63.2896 12.9728 63.2815 11.9858C63.2644 9.8812 62.5418 8.32053 60.9455 6.94042C60.1149 6.22223 59.1225 5.66144 58.1729 5.37349C57.6096 5.20278 55.0635 5.06719 54.4647 5.17615ZM64.7727 6.48948V7.88973L69.0085 7.92407C73.9527 7.96423 73.9488 7.96356 75.1379 9.14063C76.0874 10.0804 76.4381 10.8521 76.4312 11.9858C76.4221 13.4848 75.6833 14.7819 74.4303 15.499C73.3219 16.1331 72.9412 16.178 68.6494 16.1795L64.7654 16.1808L64.7987 17.5512L64.832 18.9216L69.1566 18.9206C73.0309 18.9195 73.5553 18.8978 74.1921 18.7121C76.2122 18.1229 77.8234 16.8651 78.7325 15.1678C80.7858 11.3348 78.783 6.79175 74.4291 5.40604C73.7773 5.19853 73.3465 5.17604 69.2455 5.13454L64.7727 5.08934V6.48948ZM57.7452 8.27198C58.5659 8.67056 59.4214 9.49973 59.852 10.3138C60.1628 10.9013 60.2042 11.0965 60.2069 11.9858C60.2096 12.881 60.1695 13.0731 59.8455 13.7197C59.3782 14.6522 58.655 15.3369 57.6733 15.7761C56.9902 16.0817 56.7686 16.1249 55.884 16.1249C54.9817 16.1249 54.7902 16.0857 54.0822 15.7567C52.2203 14.8912 51.1928 12.9201 51.6725 11.1341C52.0344 9.78745 53.1008 8.61262 54.4054 8.12342C55.2921 7.79106 56.9024 7.86266 57.7452 8.27198ZM64.7727 11.9858V13.3841H68.6234H72.4741V11.9858V10.5874H68.6234H64.7727V11.9858Z" fill="#3C3C3C"/>
</svg>
