<svg width="332" height="100" viewBox="0 0 332 100" fill="none" xmlns="http://www.w3.org/2000/svg">
<g clip-path="url(#clip0_1285_1226)">
<path fill-rule="evenodd" clip-rule="evenodd" d="M47.475 0.295385C30.9201 2.10757 16.7683 10.5057 8.07443 23.6772C6.8304 25.5616 5.46494 27.8902 5.0394 28.8513L4.26633 30.5992L25.6241 30.5931L46.9813 30.5866L50.3382 24.5427L53.6951 18.4984L42.4594 18.373L31.2237 18.2476L34.1659 16.7682C39.7003 13.9851 44.4104 12.7887 50.8586 12.5267C54.4954 12.3794 58.0458 12.5104 60.2381 12.8735C74.3879 15.2152 86.7749 25.4395 91.1793 38.4119C91.9855 40.7862 92.645 43.0412 92.645 43.4225C92.645 44.0233 90.3105 44.116 75.1566 44.116H57.6681L54.8592 49.3596C53.3145 52.2438 51.8543 54.8027 51.6139 55.046C51.3739 55.2898 51.1775 55.6566 51.1775 55.8617C51.1775 56.0667 60.5077 56.2345 71.9112 56.2345C89.3163 56.2345 92.645 56.339 92.645 56.8848C92.645 57.2423 92.175 58.9724 91.6009 60.7301C84.1096 83.6588 57.1764 94.5454 34.8551 83.6667L30.6905 81.6369L38.8359 81.5017L46.9813 81.3665L50.0667 75.812C51.7639 72.7572 53.1521 70.039 53.1521 69.7714C53.1521 69.4433 47.5451 69.2853 35.8947 69.2853H18.6373L17.4194 67.3044C16.0999 65.1575 14.4392 60.7701 13.8932 57.9885L13.5516 56.2471L30.2487 56.1241L46.9453 56.0015L50.0485 50.4204C51.7555 47.3507 53.1521 44.6767 53.1521 44.4777C53.1521 44.2787 41.2899 44.116 26.7911 44.116H0.430578L0.110193 47.2622C-0.284242 51.1382 0.407377 57.5755 1.75063 62.5269C7.01256 81.9277 24.1663 96.5562 45.2535 99.624C50.6236 100.405 61.296 99.9111 66.2341 98.6522C86.3563 93.5219 101.407 78.3989 105.205 59.4921C106.197 54.5561 106.191 45.7641 105.192 40.7941C101.165 20.751 84.898 5.18941 63.6301 1.03508C59.2054 0.17047 51.7373 -0.171179 47.475 0.295385ZM139.202 21.9787C129.376 23.995 120.84 31.2554 117.247 40.652C115.766 44.5229 115.42 52.9621 116.571 57.1262C118.844 65.3519 124.681 72.1947 132.538 75.847C138.599 78.6646 139.153 78.7298 158.919 78.9503L177.061 79.1526V73.2867V67.4209H161.121C148.493 67.4209 144.586 67.2745 142.317 66.7166C136.557 65.3001 132.687 62.1726 130.009 56.7692C128.681 54.09 128.491 53.21 128.531 49.953C128.566 47.1564 128.856 45.6257 129.682 43.883C132.256 38.4525 136.392 34.9199 141.764 33.564C143.587 33.1035 148.523 32.9395 160.647 32.9353L177.061 32.9297V27.1035V21.2772L159.66 21.3141C147.051 21.3411 141.416 21.5243 139.202 21.9787ZM183.479 50.1753V79.0733H189.649H195.82V50.1753V21.2772H189.649H183.479V50.1753ZM226.18 21.7615C215.16 23.8944 205.49 32.733 202.939 43.0034C202.358 45.3414 202.2 47.67 202.356 51.5736C202.539 56.1539 202.788 57.4553 204.068 60.5184C207.493 68.7176 214.342 74.8272 223.404 77.7664C226.17 78.6636 227.664 78.824 233.092 78.8063C238.886 78.7876 239.869 78.6585 243.212 77.4769C260.932 71.2145 268.73 53.1541 260.632 37.1245C257.155 30.2398 248.799 23.9079 240.712 22.03C237.277 21.232 229.643 21.0913 226.18 21.7615ZM269.869 27.0419V32.8761L287.518 33.0192C304.819 33.1599 305.217 33.1842 307.729 34.2571C311.012 35.6591 315.407 39.9822 317.144 43.5189C318.896 47.0865 318.967 52.337 317.319 56.3287C316.034 59.4385 312.616 63.2186 309.559 64.91C305.413 67.2032 303.478 67.4092 286.021 67.4153L269.839 67.4209L269.977 73.1306L270.116 78.8403L288.135 78.8361C304.277 78.8319 306.462 78.7415 309.115 77.9677C319.256 75.0094 326.987 67.8474 330.222 58.4131C331.751 53.9558 331.645 45.9687 329.994 41.2425C327.66 34.5601 322.101 28.2067 315.622 24.8177C309.549 21.6413 309.132 21.5881 288.505 21.3886L269.869 21.2082V27.0419ZM240.25 34.3755C243.825 35.9532 247.209 39.1311 249.209 42.7872C250.681 45.4779 250.829 46.1291 250.843 49.9422C250.857 53.6971 250.697 54.4545 249.318 57.1667C247.354 61.0298 244.314 63.9042 240.25 65.7392C237.435 67.0098 236.524 67.1878 232.833 67.1878C229.076 67.1878 228.274 67.0242 225.337 65.6586C219.758 63.0647 216.01 58.2271 214.965 52.2718C213.7 45.0613 219.005 36.7158 226.674 33.8544C230.293 32.5046 236.555 32.7446 240.25 34.3755ZM144.973 49.9422V55.7684H161.017H177.061V49.9422V44.116H161.017H144.973V49.9422ZM269.869 49.9422V55.7684H285.913H301.957V49.9422V44.116H285.913H269.869V49.9422Z" fill="#00FFFF"/>
<path fill-rule="evenodd" clip-rule="evenodd" d="M47.5022 0.295385C30.8668 2.11643 16.8705 10.4591 8.00234 23.8408C6.81311 25.6352 5.49208 27.8902 5.06654 28.8513L4.29347 30.5992L25.6512 30.5894L47.0085 30.5796L50.0939 25.0163C51.7911 21.9563 53.1793 19.2381 53.1793 18.9756C53.1793 18.668 49.2793 18.4541 42.215 18.373L31.2508 18.2476L34.1931 16.7682C39.7275 13.9851 44.4375 12.7887 50.8857 12.5267C54.5225 12.3794 58.0729 12.5104 60.2653 12.8735C74.4151 15.2152 86.802 25.4395 91.2065 38.4119C92.0126 40.7862 92.6722 43.0412 92.6722 43.4225C92.6722 44.0233 90.3376 44.116 75.1837 44.116H57.6953L54.8863 49.3596C53.3417 52.2438 51.8814 54.8027 51.641 55.046C51.4011 55.2898 51.2046 55.6566 51.2046 55.8617C51.2046 56.0667 60.5348 56.2345 71.9384 56.2345C89.3434 56.2345 92.6722 56.339 92.6722 56.8848C92.6722 57.2423 92.2022 58.9724 91.6281 60.7301C84.1368 83.6588 57.2036 94.5454 34.8822 83.6667L30.7177 81.6369L38.8631 81.5017L47.0085 81.3665L50.0939 75.812C51.7911 72.7572 53.1793 70.039 53.1793 69.7714C53.1793 69.4433 47.5723 69.2853 35.9219 69.2853H18.6644L17.4466 67.3044C16.127 65.1575 14.4663 60.7701 13.9204 57.9885L13.5787 56.2471L30.2457 56.1241L46.9127 56.0015L50.046 50.4377C51.7694 47.3773 53.1793 44.7033 53.1793 44.4949C53.1793 44.2866 41.323 44.116 26.8321 44.116H0.48487L0.161029 47.2622C-0.239824 51.1592 0.442416 57.6044 1.77777 62.5269C7.03971 81.9277 24.1934 96.5562 45.2807 99.624C50.6507 100.405 61.3232 99.9111 66.2613 98.6522C86.3834 93.5219 101.434 78.3989 105.232 59.4921C106.224 54.5561 106.218 45.7641 105.219 40.7941C101.192 20.751 84.9251 5.18941 63.6572 1.03508C59.2325 0.17047 51.7644 -0.171179 47.5022 0.295385ZM139.179 21.988C133.12 23.2302 126.713 27.0242 122.649 31.7751C117.971 37.2443 115.874 42.9125 115.874 50.0895C115.874 55.479 116.821 59.1304 119.394 63.6613C122.592 69.2932 126.759 73.1483 132.565 75.847C138.627 78.6646 139.18 78.7298 158.946 78.9503L177.088 79.1526V73.2867V67.4209H161.148C148.521 67.4209 144.613 67.2745 142.344 66.7166C136.584 65.3001 132.715 62.1726 130.036 56.7692C128.715 54.1031 128.516 53.1947 128.544 49.953C128.572 46.7499 128.802 45.7646 130.152 43.0831C132.107 39.1977 134.975 36.3807 138.83 34.561L141.791 33.1627L159.44 33.0192L177.088 32.8761V27.0764V21.2772L159.687 21.3141C146.948 21.3416 141.453 21.5219 139.179 21.988ZM183.506 50.1753V79.0733H189.677H195.847V50.1753V21.2772H189.677H183.506V50.1753ZM226.208 21.7615C215.187 23.8944 205.517 32.733 202.966 43.0034C202.385 45.3414 202.227 47.67 202.383 51.5736C202.566 56.1539 202.815 57.4553 204.095 60.5184C207.52 68.7176 214.369 74.8272 223.431 77.7664C226.197 78.6636 227.691 78.824 233.119 78.8063C238.913 78.7876 239.896 78.6585 243.239 77.4769C260.959 71.2145 268.757 53.1541 260.66 37.1245C257.182 30.2398 248.826 23.9079 240.739 22.03C237.305 21.232 229.671 21.0913 226.208 21.7615ZM269.897 27.0419V32.8761L287.545 33.0192C304.846 33.1599 305.244 33.1842 307.756 34.2571C311.039 35.6591 315.434 39.9822 317.171 43.5189C318.923 47.0865 318.995 52.337 317.346 56.3287C316.061 59.4385 312.643 63.2186 309.586 64.91C305.441 67.2032 303.505 67.4092 286.049 67.4153L269.866 67.4209L270.005 73.1306L270.143 78.8403L288.162 78.8361C304.304 78.8319 306.489 78.7415 309.143 77.9677C319.283 75.0094 327.014 67.8474 330.25 58.4131C331.778 53.9558 331.672 45.9687 330.022 41.2425C327.687 34.5601 322.128 28.2067 315.649 24.8177C309.576 21.6413 309.159 21.5881 288.532 21.3886L269.897 21.2082V27.0419ZM240.277 34.3755C243.852 35.9532 247.237 39.1311 249.236 42.7872C250.708 45.4779 250.857 46.1291 250.87 49.9422C250.884 53.6971 250.724 54.4545 249.345 57.1667C247.381 61.0298 244.341 63.9042 240.277 65.7392C237.463 67.0098 236.551 67.1878 232.861 67.1878C229.103 67.1878 228.301 67.0242 225.364 65.6586C219.785 63.0647 216.037 58.2271 214.992 52.2718C213.727 45.0613 219.032 36.7158 226.701 33.8544C230.32 32.5046 236.582 32.7446 240.277 34.3755ZM145 49.9422V55.7684H161.044H177.088V49.9422V44.116H161.044H145V49.9422ZM269.897 49.9422V55.7684H285.941H301.985V49.9422V44.116H285.941H269.897V49.9422Z" fill="#00CCCC"/>
<path fill-rule="evenodd" clip-rule="evenodd" d="M47.5022 0.295385C30.8668 2.11643 16.8705 10.4591 8.00234 23.8408C6.81311 25.6352 5.49208 27.8902 5.06654 28.8513L4.29347 30.5992L25.6512 30.5894L47.0085 30.5796L50.0939 25.0163C51.7911 21.9563 53.1793 19.2381 53.1793 18.9756C53.1793 18.668 49.2793 18.4541 42.215 18.373L31.2508 18.2476L34.1931 16.7682C39.7275 13.9851 44.4375 12.7887 50.8857 12.5267C54.5225 12.3794 58.0729 12.5104 60.2653 12.8735C74.4151 15.2152 86.802 25.4395 91.2065 38.4119C92.0126 40.7862 92.6722 43.0412 92.6722 43.4225C92.6722 44.0233 90.3376 44.116 75.1837 44.116H57.6953L54.8863 49.3596C53.3417 52.2438 51.8814 54.8027 51.641 55.046C51.4011 55.2898 51.2046 55.6566 51.2046 55.8617C51.2046 56.0667 60.5348 56.2345 71.9384 56.2345C89.3434 56.2345 92.6722 56.339 92.6722 56.8848C92.6722 57.2423 92.2022 58.9724 91.6281 60.7301C84.1368 83.6588 57.2036 94.5454 34.8822 83.6667L30.7177 81.6369L38.8631 81.505L47.0085 81.3726L50.1117 75.6787C51.8187 72.5466 53.2069 69.8269 53.197 69.6348C53.1872 69.4428 45.4135 69.2853 35.9219 69.2853H18.6644L17.4407 67.3044C16.1315 65.1859 13.6864 58.5487 13.6864 57.1136C13.6864 56.2886 14.4812 56.2411 30.2744 56.1241L46.8629 56.0015L50.0208 50.4461C51.758 47.3903 53.1793 44.7159 53.1793 44.5033C53.1793 44.2903 41.323 44.116 26.8321 44.116H0.48487L0.161029 47.2622C-0.239824 51.1592 0.442416 57.6044 1.77777 62.5269C7.03971 81.9277 24.1934 96.5562 45.2807 99.624C50.6507 100.405 61.3232 99.9111 66.2613 98.6522C86.3834 93.5219 101.434 78.3989 105.232 59.4921C106.224 54.5561 106.218 45.7641 105.219 40.7941C101.192 20.751 84.9251 5.18941 63.6572 1.03508C59.2325 0.17047 51.7644 -0.171179 47.5022 0.295385ZM139.126 22.023C128.531 24.2113 119.391 32.7045 116.626 42.9321C115.65 46.5416 115.662 53.6845 116.65 57.3327C117.543 60.6266 120.662 66.361 122.881 68.7884C125.343 71.4806 129.164 74.2665 132.565 75.847C138.627 78.6646 139.18 78.7298 158.946 78.9503L177.088 79.1526V73.2867V67.4209H161.315C151.688 67.4209 144.523 67.22 142.926 66.9049C137.272 65.7895 132.757 62.2407 130.019 56.758C128.668 54.0555 128.483 53.2068 128.528 49.9422C128.572 46.776 128.818 45.7408 130.154 43.0831C132.106 39.1987 134.974 36.3811 138.83 34.561L141.791 33.1627L159.44 33.0192L177.088 32.8761V27.0764V21.2772L159.687 21.3238C146.765 21.3588 141.472 21.5387 139.126 22.023ZM183.506 50.1753V79.0733H189.677H195.847V50.1753V21.2772H189.677H183.506V50.1753ZM226.208 21.7615C215.187 23.8944 205.517 32.733 202.966 43.0034C202.385 45.3414 202.227 47.67 202.383 51.5736C202.566 56.1539 202.815 57.4553 204.095 60.5184C207.52 68.7176 214.369 74.8272 223.431 77.7664C226.197 78.6636 227.691 78.824 233.119 78.8063C238.913 78.7876 239.896 78.6585 243.239 77.4769C260.959 71.2145 268.757 53.1541 260.66 37.1245C257.182 30.2398 248.826 23.9079 240.739 22.03C237.305 21.232 229.671 21.0913 226.208 21.7615ZM269.897 27.0419V32.8761L287.545 33.0192C304.846 33.1599 305.244 33.1842 307.756 34.2571C311.039 35.6591 315.434 39.9822 317.171 43.5189C318.923 47.0865 318.995 52.337 317.346 56.3287C316.061 59.4385 312.643 63.2186 309.586 64.91C305.441 67.2032 303.505 67.4092 286.049 67.4153L269.866 67.4209L270.005 73.1306L270.143 78.8403L288.162 78.8361C304.304 78.8319 306.489 78.7415 309.143 77.9677C319.283 75.0094 327.014 67.8474 330.25 58.4131C331.778 53.9558 331.672 45.9687 330.022 41.2425C327.687 34.5601 322.128 28.2067 315.649 24.8177C309.576 21.6413 309.159 21.5881 288.532 21.3886L269.897 21.2082V27.0419ZM240.277 34.3755C243.852 35.9532 247.237 39.1311 249.236 42.7872C250.708 45.4779 250.857 46.1291 250.87 49.9422C250.884 53.6971 250.724 54.4545 249.345 57.1667C247.381 61.0298 244.341 63.9042 240.277 65.7392C237.463 67.0098 236.551 67.1878 232.861 67.1878C229.103 67.1878 228.301 67.0242 225.364 65.6586C219.785 63.0647 216.037 58.2271 214.992 52.2718C213.727 45.0613 219.032 36.7158 226.701 33.8544C230.32 32.5046 236.582 32.7446 240.277 34.3755ZM145.33 44.4269C145.148 44.5975 145 47.2193 145 50.2531V55.7684H161.044H177.088V49.9422V44.116H161.374C152.73 44.116 145.51 44.2558 145.33 44.4269ZM269.897 49.9422V55.7684H285.941H301.985V49.9422V44.116H285.941H269.897V49.9422Z" fill="#00ACA7"/>
<path fill-rule="evenodd" clip-rule="evenodd" d="M47.4652 0.295385C39.7522 1.13949 32.2579 3.49281 25.9909 7.03842C21.6901 9.47191 15.7287 14.1222 13.2638 16.9658L11.5469 18.9467H20.767H29.9866L33.5424 17.1117C39.5325 14.0206 44.1438 12.7989 50.8487 12.5267C54.4855 12.3794 58.0359 12.5104 60.2283 12.8735C74.3781 15.2152 86.7651 25.4395 91.1695 38.4119C91.9757 40.7862 92.6352 43.0412 92.6352 43.4225C92.6352 44.0233 90.3007 44.116 75.1467 44.116H57.6583L54.8494 49.3596C53.3047 52.2438 51.8444 54.8027 51.604 55.046C51.3641 55.2898 51.1676 55.6566 51.1676 55.8617C51.1676 56.0667 60.4978 56.2345 71.9014 56.2345C89.3064 56.2345 92.6352 56.339 92.6352 56.8848C92.6352 57.2423 92.1652 58.9724 91.5911 60.7301C87.2943 73.8805 76.5675 83.5148 62.5554 86.8082C53.1028 89.0296 43.4571 87.9007 34.4779 83.5222L30.0903 81.3828L20.8475 81.5096L11.6041 81.6369L15.5179 85.2962C23.9595 93.1891 33.8801 97.9708 45.2437 99.624C50.6137 100.405 61.2862 99.9111 66.2243 98.6522C86.3464 93.5219 101.397 78.3989 105.195 59.4921C106.187 54.5561 106.181 45.7641 105.182 40.7941C101.155 20.751 84.8882 5.18941 63.6202 1.03508C59.1956 0.17047 51.7274 -0.171179 47.4652 0.295385ZM183.469 50.1753V79.0733H189.64H195.81V50.1753V21.2772H189.64H183.469V50.1753ZM226.171 21.7615C215.15 23.8944 205.48 32.733 202.929 43.0034C202.348 45.3414 202.19 47.67 202.346 51.5736C202.529 56.1539 202.778 57.4553 204.058 60.5184C207.483 68.7176 214.332 74.8272 223.394 77.7664C226.16 78.6636 227.654 78.824 233.082 78.8063C238.876 78.7876 239.859 78.6585 243.202 77.4769C260.922 71.2145 268.72 53.1541 260.623 37.1245C257.145 30.2398 248.789 23.9079 240.702 22.03C237.268 21.232 229.634 21.0913 226.171 21.7615ZM269.86 27.0419V32.8761L287.508 33.0192C304.809 33.1599 305.207 33.1842 307.719 34.2571C311.002 35.6591 315.397 39.9822 317.134 43.5189C318.886 47.0865 318.958 52.337 317.309 56.3287C316.024 59.4385 312.606 63.2186 309.549 64.91C305.404 67.2032 303.469 67.4092 286.012 67.4153L269.829 67.4209L269.968 73.1306L270.106 78.8403L288.125 78.8361C304.267 78.8319 306.452 78.7415 309.106 77.9677C319.246 75.0094 326.977 67.8474 330.213 58.4131C331.741 53.9558 331.635 45.9687 329.985 41.2425C327.651 34.5601 322.091 28.2067 315.612 24.8177C309.539 21.6413 309.122 21.5881 288.495 21.3886L269.86 21.2082V27.0419ZM240.24 34.3755C243.815 35.9532 247.2 39.1311 249.199 42.7872C250.671 45.4779 250.82 46.1291 250.833 49.9422C250.847 53.6971 250.687 54.4545 249.308 57.1667C247.344 61.0298 244.304 63.9042 240.24 65.7392C237.426 67.0098 236.514 67.1878 232.824 67.1878C229.066 67.1878 228.264 67.0242 225.327 65.6586C219.749 63.0647 216 58.2271 214.955 52.2718C213.69 45.0613 218.995 36.7158 226.664 33.8544C230.283 32.5046 236.545 32.7446 240.24 34.3755ZM269.86 49.9422V55.7684H285.904H301.948V49.9422V44.116H285.904H269.86V49.9422Z" fill="#008080"/>
<path fill-rule="evenodd" clip-rule="evenodd" d="M47.4518 0.295385C36.6994 1.47228 27.2907 5.27564 18.9656 11.8108C15.5554 14.4881 12.1551 17.9097 12.1551 18.6643C12.1551 18.8195 16.1641 18.9467 21.0642 18.9467H29.9733L33.5291 17.1117C39.5192 14.0206 44.1305 12.7989 50.8354 12.5267C54.4722 12.3794 58.0226 12.5104 60.215 12.8735C74.3648 15.2152 86.7517 25.4395 91.1562 38.4119C91.9623 40.7862 92.6218 43.0412 92.6218 43.4225C92.6218 44.0233 90.2873 44.116 75.1334 44.116H57.645L54.836 49.3596C53.2914 52.2438 51.8311 54.8027 51.5907 55.046C51.3508 55.2898 51.1543 55.6566 51.1543 55.8617C51.1543 56.0668 60.4845 56.2345 71.8881 56.2345C89.2931 56.2345 92.6218 56.339 92.6218 56.8848C92.6218 57.2423 92.1519 58.9724 91.5777 60.7301C87.2923 73.8465 76.6188 83.4551 62.6072 86.811C53.2608 89.0497 43.4557 87.9063 34.4863 83.5329L30.1204 81.4038H20.8336H11.5469L13.2085 83.1526C20.3242 90.6414 29.6159 95.9838 40.3046 98.7315C43.9311 99.6641 45.6431 99.8077 53.1289 99.8077C60.6148 99.8077 62.3268 99.6641 65.9533 98.7315C86.3879 93.4785 101.363 78.4991 105.182 59.4921C106.173 54.5561 106.167 45.7641 105.169 40.7941C101.144 20.7622 84.863 5.18708 63.6069 1.03508C59.1822 0.17047 51.7141 -0.171179 47.4518 0.295385ZM183.456 50.1753V79.0733H189.626H195.797V50.1753V21.2772H189.626H183.456V50.1753ZM226.157 21.7615C220.586 22.8396 214.074 26.3628 210.141 30.4267C204.299 36.4618 201.934 42.9065 202.323 51.7358C202.515 56.1045 202.79 57.5056 204.047 60.5184C207.466 68.7162 214.332 74.8398 223.38 77.7617C226.092 78.6375 227.705 78.8179 232.822 78.8198C238.314 78.8216 239.425 78.6785 242.923 77.5194C260.708 71.626 268.754 53.2492 260.609 37.1245C257.131 30.2398 248.776 23.9079 240.689 22.03C237.254 21.232 229.62 21.0913 226.157 21.7615ZM269.846 27.0419V32.8761L287.495 33.0192C308.095 33.1865 308.078 33.1837 313.033 38.088C316.989 42.0037 318.45 45.2188 318.422 49.9422C318.383 56.1879 315.305 61.5923 310.085 64.58C305.466 67.2223 303.88 67.4092 285.998 67.4153L269.816 67.4209L269.954 73.1306L270.093 78.8403L288.112 78.8361C304.254 78.8319 306.439 78.7415 309.092 77.9677C319.233 75.0094 326.964 67.8474 330.199 58.4131C331.728 53.9558 331.622 45.9688 329.971 41.2425C327.637 34.5601 322.078 28.2067 315.599 24.8177C309.526 21.6413 309.109 21.5881 288.482 21.3886L269.846 21.2083V27.0419ZM240.227 34.3755C243.802 35.9532 247.186 39.1311 249.186 42.7872C250.658 45.478 250.806 46.1291 250.82 49.9422C250.834 53.6971 250.674 54.4545 249.295 57.1667C247.331 61.0298 244.29 63.9042 240.227 65.7392C237.412 67.0098 236.5 67.1878 232.81 67.1878C229.053 67.1878 228.251 67.0242 225.314 65.6586C219.735 63.0647 215.987 58.2271 214.942 52.2718C213.676 45.0613 218.982 36.7158 226.651 33.8544C230.269 32.5046 236.531 32.7446 240.227 34.3755ZM269.846 49.9422V55.7685H285.89H301.934V49.9422V44.116H285.89H269.846V49.9422Z" fill="#808080"/>
<path fill-rule="evenodd" clip-rule="evenodd" d="M47.4704 0.291927C36.718 1.46882 27.3093 5.27218 18.9842 11.8073C15.574 14.4846 12.1736 17.9062 12.1736 18.6608C12.1736 18.816 16.1165 18.9447 20.9361 18.9466L29.6986 18.9498L34.6352 16.6184C41.3485 13.448 45.8937 12.4161 53.1031 12.4249C61.793 12.4361 68.8208 14.4301 75.6767 18.8305C79.5322 21.305 85.5332 27.3475 87.8391 31.0777C89.5521 33.8486 92.6404 41.7867 92.6404 43.419C92.6404 44.0198 90.3059 44.1126 75.152 44.1126H57.6635L54.8546 49.3562C53.3099 52.2404 51.8497 54.7992 51.6093 55.0425C51.3693 55.2863 51.1729 55.6531 51.1729 55.8582C51.1729 56.0633 60.5031 56.2311 71.9066 56.2311C89.3116 56.2311 92.6404 56.3355 92.6404 56.8813C92.6404 57.2388 92.1704 58.9689 91.5963 60.7266C87.3108 73.8431 76.6374 83.4517 62.6258 86.8076C53.2699 89.0486 43.4752 87.9038 34.4832 83.5188L30.0955 81.3794L20.8527 81.5062L11.6094 81.6334L15.5231 85.2927C26.7746 95.813 39.9751 100.588 55.9411 99.9142C68.8454 99.3693 80.017 94.8557 89.5698 86.3279C100.309 76.7408 105.969 64.3459 105.969 50.4147C105.969 33.7279 98.5016 19.6275 84.458 9.79612C74.022 2.49051 60.0894 -1.08959 47.4704 0.291927ZM183.474 50.1718V79.0699H189.645H195.816V50.1718V21.2738H189.645H183.474V50.1718ZM226.916 21.5665C215.489 23.6448 205.38 32.7207 202.923 43.1095C201.715 48.2137 202.154 55.8633 203.902 60.1929C208.284 71.0413 218.658 78.25 230.837 78.9091C245.47 79.701 258.235 71.4678 262.57 58.4409C263.471 55.7338 263.685 54.0512 263.652 49.9388C263.58 41.1701 260.57 34.6676 253.919 28.9173C250.458 25.925 246.323 23.5884 242.366 22.3887C240.019 21.6774 229.411 21.1125 226.916 21.5665ZM269.865 27.0385V32.8726L287.513 33.0157C308.113 33.183 308.097 33.1802 313.051 38.0845C317.007 42.0002 318.469 45.2153 318.44 49.9388C318.402 56.1845 315.324 61.5889 310.103 64.5766C305.485 67.2189 303.899 67.4058 286.017 67.4118L269.834 67.4174L269.973 73.1271L270.112 78.8368L288.13 78.8326C304.272 78.8284 306.457 78.738 309.111 77.9643C317.527 75.5094 324.241 70.2686 328.028 63.1969C336.584 47.2266 328.239 28.2979 310.098 22.5243C307.383 21.6597 305.588 21.566 288.5 21.3931L269.865 21.2048V27.0385ZM240.585 34.4653C244.004 36.126 247.569 39.5807 249.363 42.9725C250.657 45.4204 250.83 46.2338 250.841 49.9388C250.852 53.669 250.686 54.4692 249.335 57.1633C247.388 61.0487 244.375 63.9012 240.285 65.7311C237.439 67.0045 236.515 67.1844 232.83 67.1844C229.071 67.1844 228.272 67.0212 225.323 65.6505C217.565 62.0443 213.284 53.8316 215.283 46.3904C216.79 40.7795 221.234 35.8845 226.669 33.8463C230.363 32.4615 237.073 32.7598 240.585 34.4653ZM269.865 49.9388V55.765H285.909H301.953V49.9388V44.1126H285.909H269.865V49.9388Z" fill="#3C3C3C"/>
</g>
<defs>
<clipPath id="clip0_1285_1226">
<rect width="332" height="100" fill="white"/>
</clipPath>
</defs>
</svg>
