<svg width="60" height="60" viewBox="0 0 60 60" fill="none" xmlns="http://www.w3.org/2000/svg">
<path fill-rule="evenodd" clip-rule="evenodd" d="M8.59509 21.0535C5.59791 21.3816 3.03581 22.9021 1.46183 25.2867C1.23661 25.6279 0.989397 26.0494 0.912356 26.2234L0.772395 26.5399L4.6391 26.5388L8.50572 26.5376L9.11347 25.4434L9.72121 24.3491L7.68705 24.3264L5.65288 24.3037L6.18555 24.0359C7.18753 23.532 8.04025 23.3154 9.20767 23.268C9.86609 23.2413 10.5089 23.265 10.9058 23.3307C13.4675 23.7547 15.7101 25.6057 16.5075 27.9543C16.6535 28.3842 16.7729 28.7924 16.7729 28.8615C16.7729 28.9702 16.3502 28.987 13.6067 28.987H10.4405L9.93196 29.9364C9.6523 30.4585 9.38794 30.9218 9.34441 30.9658C9.30097 31.01 9.2654 31.0764 9.2654 31.1135C9.2654 31.1506 10.9546 31.181 13.0191 31.181C16.1702 31.181 16.7729 31.1999 16.7729 31.2987C16.7729 31.3635 16.6878 31.6767 16.5838 31.9949C15.2276 36.146 10.3515 38.117 6.31032 36.1475L5.55635 35.78L7.03104 35.7555L8.50572 35.731L9.06431 34.7254C9.37158 34.1724 9.6229 33.6802 9.6229 33.6318C9.6229 33.5724 8.60778 33.5438 6.49854 33.5438H3.37418L3.15369 33.1852C2.9148 32.7965 2.61414 32.0022 2.51529 31.4986L2.45344 31.1833L5.47636 31.161L8.49919 31.1388L9.061 30.1284C9.37006 29.5727 9.6229 29.0885 9.6229 29.0525C9.6229 29.0165 7.47532 28.987 4.85038 28.987H0.0779539L0.0199499 29.5566C-0.0514605 30.2584 0.0737534 31.4238 0.316942 32.3202C1.26959 35.8326 4.37518 38.481 8.19291 39.0365C9.16512 39.1779 11.0973 39.0884 11.9913 38.8605C15.6343 37.9317 18.3591 35.1938 19.0468 31.7708C19.2263 30.8772 19.2252 29.2854 19.0444 28.3856C18.3154 24.7569 15.3703 21.9396 11.5199 21.1875C10.7188 21.0309 9.36675 20.9691 8.59509 21.0535ZM25.2017 24.9792C23.4229 25.3442 21.8774 26.6587 21.2269 28.3599C20.9588 29.0607 20.8962 30.5886 21.1045 31.3425C21.516 32.8317 22.5728 34.0705 23.9953 34.7318C25.0927 35.2419 25.193 35.2537 28.7714 35.2936L32.0559 35.3302V34.2682V33.2063H29.17C26.8839 33.2063 26.1764 33.1798 25.7658 33.0787C24.7229 32.8223 24.0223 32.2561 23.5375 31.2778C23.297 30.7928 23.2625 30.6335 23.2699 30.0438C23.2761 29.5375 23.3287 29.2604 23.4782 28.9448C23.9443 27.9617 24.6931 27.3221 25.6657 27.0767C25.9957 26.9933 26.8892 26.9636 29.0842 26.9628L32.0559 26.9618V25.907V24.8522L28.9055 24.8589C26.6228 24.8638 25.6026 24.8969 25.2017 24.9792ZM33.2178 30.084V35.3159H34.335H35.4522V30.084V24.8522H34.335H33.2178V30.084ZM40.9487 24.9399C38.9535 25.326 37.2028 26.9262 36.741 28.7856C36.6359 29.2089 36.6072 29.6305 36.6354 30.3372C36.6686 31.1664 36.7137 31.402 36.9454 31.9566C37.5654 33.441 38.8054 34.5471 40.446 35.0792C40.9468 35.2417 41.2174 35.2707 42.2 35.2675C43.249 35.2641 43.427 35.2408 44.0322 35.0268C47.2403 33.8931 48.652 30.6233 47.1861 27.7213C46.5564 26.4748 45.0437 25.3285 43.5796 24.9885C42.9578 24.844 41.5757 24.8185 40.9487 24.9399ZM48.8584 25.8959V26.9521L52.0535 26.978C55.1858 27.0035 55.2578 27.0079 55.7126 27.2021C56.307 27.456 57.1027 28.2386 57.4172 28.8789C57.7344 29.5248 57.7473 30.4754 57.4488 31.1981C57.2162 31.7611 56.5973 32.4454 56.0439 32.7517C55.2934 33.1668 54.9431 33.2041 51.7826 33.2052L48.8528 33.2063L48.878 34.24L48.9031 35.2737L52.1652 35.2729C55.0877 35.2721 55.4833 35.2558 55.9637 35.1157C57.7996 34.5801 59.1992 33.2835 59.785 31.5754C60.0618 30.7685 60.0426 29.3225 59.7437 28.4668C59.3211 27.257 58.3147 26.1067 57.1416 25.4932C56.0421 24.9181 55.9666 24.9085 52.2323 24.8724L48.8584 24.8397V25.8959ZM43.4959 27.2236C44.1432 27.5092 44.7559 28.0845 45.118 28.7464C45.3844 29.2336 45.4113 29.3515 45.4138 30.0418C45.4163 30.7216 45.3873 30.8588 45.1377 31.3498C44.7821 32.0492 44.2316 32.5696 43.4959 32.9018C42.9864 33.1318 42.8213 33.1641 42.1532 33.1641C41.4729 33.1641 41.3278 33.1344 40.7961 32.8872C39.786 32.4176 39.1074 31.5418 38.9182 30.4636C38.6892 29.1582 39.6497 27.6473 41.0381 27.1292C41.6932 26.8848 42.8269 26.9283 43.4959 27.2236ZM26.2466 30.0418V31.0966H29.1513H32.0559V30.0418V28.987H29.1513H26.2466V30.0418ZM48.8584 30.0418V31.0966H51.7631H54.6677V30.0418V28.987H51.7631H48.8584V30.0418Z" fill="#00FFFF"/>
<path fill-rule="evenodd" clip-rule="evenodd" d="M8.59933 21.0535C5.58758 21.3832 3.05363 22.8936 1.44811 25.3163C1.2328 25.6412 0.993637 26.0494 0.916596 26.2234L0.776635 26.5399L4.64334 26.5381L8.50996 26.5363L9.06855 25.5291C9.37582 24.9751 9.62714 24.483 9.62714 24.4355C9.62714 24.3798 8.92108 24.3411 7.64213 24.3264L5.65712 24.3037L6.18979 24.0359C7.19177 23.532 8.04449 23.3154 9.21191 23.268C9.87033 23.2413 10.5131 23.265 10.91 23.3307C13.4718 23.7547 15.7144 25.6057 16.5118 27.9543C16.6577 28.3842 16.7771 28.7924 16.7771 28.8615C16.7771 28.9702 16.3545 28.987 13.6109 28.987H10.4447L9.9362 29.9364C9.65654 30.4585 9.39218 30.9218 9.34865 30.9658C9.30521 31.01 9.26964 31.0764 9.26964 31.1135C9.26964 31.1506 10.9588 31.181 13.0234 31.181C16.1745 31.181 16.7771 31.1999 16.7771 31.2987C16.7771 31.3635 16.692 31.6767 16.5881 31.9949C15.2318 36.146 10.3557 38.117 6.31456 36.1475L5.56059 35.78L7.03528 35.7555L8.50996 35.731L9.06855 34.7254C9.37582 34.1724 9.62714 33.6802 9.62714 33.6318C9.62714 33.5724 8.61202 33.5438 6.50278 33.5438H3.37842L3.15793 33.1852C2.91904 32.7965 2.61838 32.0022 2.51953 31.4986L2.45768 31.1833L5.47515 31.161L8.49262 31.1388L9.05988 30.1315C9.37189 29.5775 9.62714 29.0934 9.62714 29.0556C9.62714 29.0179 7.48063 28.987 4.85712 28.987H0.0871092L0.0284794 29.5566C-0.0440928 30.2622 0.0794231 31.429 0.321182 32.3202C1.27383 35.8326 4.37942 38.481 8.19715 39.0365C9.16936 39.1779 11.1016 39.0884 11.9956 38.8605C15.6386 37.9317 18.3633 35.1938 19.0511 31.7708C19.2305 30.8772 19.2295 29.2854 19.0487 28.3856C18.3196 24.7569 15.3746 21.9396 11.5241 21.1875C10.7231 21.0309 9.37099 20.9691 8.59933 21.0535ZM25.1969 24.9809C24.1 25.2058 22.9399 25.8927 22.2043 26.7528C21.3573 27.743 20.9777 28.7691 20.9777 30.0685C20.9777 31.0442 21.1491 31.7053 21.615 32.5256C22.1939 33.5452 22.9483 34.2432 23.9996 34.7318C25.0969 35.2419 25.1972 35.2537 28.7757 35.2936L32.0602 35.3302V34.2682V33.2063H29.1743C26.8882 33.2063 26.1807 33.1798 25.77 33.0787C24.7272 32.8223 24.0266 32.2561 23.5417 31.2778C23.3024 30.7951 23.2664 30.6307 23.2715 30.0438C23.2765 29.4639 23.3183 29.2855 23.5626 28.8C23.9165 28.0966 24.4359 27.5866 25.1337 27.2571L25.6699 27.004L28.865 26.978L32.0602 26.9521V25.9021V24.8522L28.9097 24.8589C26.6035 24.8638 25.6086 24.8965 25.1969 24.9809ZM33.2221 30.084V35.3159H34.3392H35.4564V30.084V24.8522H34.3392H33.2221V30.084ZM40.953 24.9399C38.9578 25.326 37.207 26.9262 36.7452 28.7856C36.6401 29.2089 36.6114 29.6305 36.6397 30.3372C36.6728 31.1664 36.7179 31.402 36.9496 31.9566C37.5697 33.441 38.8097 34.5471 40.4502 35.0792C40.951 35.2417 41.2216 35.2707 42.2042 35.2675C43.2532 35.2641 43.4312 35.2408 44.0364 35.0268C47.2446 33.8931 48.6563 30.6233 47.1903 27.7213C46.5607 26.4748 45.0479 25.3285 43.5838 24.9885C42.962 24.844 41.5799 24.8185 40.953 24.9399ZM48.8626 25.8959V26.9521L52.0578 26.978C55.1901 27.0035 55.262 27.0079 55.7169 27.2021C56.3113 27.456 57.107 28.2386 57.4214 28.8789C57.7386 29.5248 57.7516 30.4754 57.453 31.1981C57.2204 31.7611 56.6016 32.4454 56.0482 32.7517C55.2977 33.1668 54.9473 33.2041 51.7869 33.2052L48.8571 33.2063L48.8822 34.24L48.9073 35.2737L52.1695 35.2729C55.0919 35.2721 55.4875 35.2558 55.9679 35.1157C57.8038 34.5801 59.2034 33.2835 59.7892 31.5754C60.066 30.7685 60.0468 29.3225 59.7479 28.4668C59.3254 27.257 58.3189 26.1067 57.1459 25.4932C56.0464 24.9181 55.9709 24.9085 52.2365 24.8724L48.8626 24.8397V25.8959ZM43.5001 27.2236C44.1474 27.5092 44.7601 28.0845 45.1222 28.7464C45.3886 29.2336 45.4155 29.3515 45.418 30.0418C45.4205 30.7216 45.3916 30.8588 45.142 31.3498C44.7863 32.0492 44.2359 32.5696 43.5001 32.9018C42.9906 33.1318 42.8255 33.1641 42.1575 33.1641C41.4771 33.1641 41.332 33.1344 40.8003 32.8872C39.7903 32.4176 39.1117 31.5418 38.9225 30.4636C38.6934 29.1582 39.6539 27.6473 41.0423 27.1292C41.6975 26.8848 42.8312 26.9283 43.5001 27.2236ZM26.2508 30.0418V31.0966H29.1555H32.0602V30.0418V28.987H29.1555H26.2508V30.0418ZM48.8626 30.0418V31.0966H51.7673H54.672V30.0418V28.987H51.7673H48.8626V30.0418Z" fill="#00CCCC"/>
<path fill-rule="evenodd" clip-rule="evenodd" d="M8.59933 21.0535C5.58758 21.3832 3.05363 22.8936 1.44811 25.3163C1.2328 25.6412 0.993637 26.0494 0.916596 26.2234L0.776635 26.5399L4.64334 26.5381L8.50996 26.5363L9.06855 25.5291C9.37582 24.9751 9.62714 24.483 9.62714 24.4355C9.62714 24.3798 8.92108 24.3411 7.64213 24.3264L5.65712 24.3037L6.18979 24.0359C7.19177 23.532 8.04449 23.3154 9.21191 23.268C9.87033 23.2413 10.5131 23.265 10.91 23.3307C13.4718 23.7547 15.7144 25.6057 16.5118 27.9543C16.6577 28.3842 16.7771 28.7924 16.7771 28.8615C16.7771 28.9702 16.3545 28.987 13.6109 28.987H10.4447L9.9362 29.9364C9.65654 30.4585 9.39218 30.9218 9.34865 30.9658C9.30521 31.01 9.26964 31.0764 9.26964 31.1135C9.26964 31.1506 10.9588 31.181 13.0234 31.181C16.1745 31.181 16.7771 31.1999 16.7771 31.2987C16.7771 31.3635 16.692 31.6767 16.5881 31.9949C15.2318 36.146 10.3557 38.117 6.31456 36.1475L5.56059 35.78L7.03528 35.7561L8.50996 35.7321L9.07177 34.7013C9.38082 34.1342 9.63215 33.6418 9.63036 33.6071C9.62857 33.5723 8.22119 33.5438 6.50278 33.5438H3.37842L3.15686 33.1852C2.91984 32.8016 2.47717 31.6 2.47717 31.3402C2.47717 31.1908 2.62106 31.1822 5.48033 31.161L8.48359 31.1388L9.05532 30.1331C9.36983 29.5798 9.62714 29.0956 9.62714 29.0572C9.62714 29.0186 7.48063 28.987 4.85712 28.987H0.0871092L0.0284794 29.5566C-0.0440928 30.2622 0.0794231 31.429 0.321182 32.3202C1.27383 35.8326 4.37942 38.481 8.19715 39.0365C9.16936 39.1779 11.1016 39.0884 11.9956 38.8605C15.6386 37.9317 18.3633 35.1938 19.0511 31.7708C19.2305 30.8772 19.2295 29.2854 19.0487 28.3856C18.3196 24.7569 15.3746 21.9396 11.5241 21.1875C10.7231 21.0309 9.37099 20.9691 8.59933 21.0535ZM25.1874 24.9872C23.2691 25.3834 21.6144 26.921 21.1138 28.7727C20.9371 29.4262 20.9393 30.7194 21.1182 31.3798C21.2799 31.9762 21.8445 33.0144 22.2463 33.4538C22.6919 33.9412 23.3838 34.4456 23.9996 34.7318C25.0969 35.2419 25.1972 35.2537 28.7757 35.2936L32.0602 35.3302V34.2682V33.2063H29.2046C27.4616 33.2063 26.1645 33.1699 25.8754 33.1128C24.8518 32.9109 24.0343 32.2684 23.5385 31.2758C23.294 30.7865 23.2604 30.6329 23.2687 30.0418C23.2766 29.4686 23.321 29.2812 23.563 28.8C23.9164 28.0968 24.4357 27.5867 25.1337 27.2571L25.6699 27.004L28.865 26.978L32.0602 26.9521V25.9021V24.8522L28.9097 24.8606C26.5703 24.867 25.6121 24.8995 25.1874 24.9872ZM33.2221 30.084V35.3159H34.3392H35.4564V30.084V24.8522H34.3392H33.2221V30.084ZM40.953 24.9399C38.9578 25.326 37.207 26.9262 36.7452 28.7856C36.6401 29.2089 36.6114 29.6305 36.6397 30.3372C36.6728 31.1664 36.7179 31.402 36.9496 31.9566C37.5697 33.441 38.8097 34.5471 40.4502 35.0792C40.951 35.2417 41.2216 35.2707 42.2042 35.2675C43.2532 35.2641 43.4312 35.2408 44.0364 35.0268C47.2446 33.8931 48.6563 30.6233 47.1903 27.7213C46.5607 26.4748 45.0479 25.3285 43.5838 24.9885C42.962 24.844 41.5799 24.8185 40.953 24.9399ZM48.8626 25.8959V26.9521L52.0578 26.978C55.1901 27.0035 55.262 27.0079 55.7169 27.2021C56.3113 27.456 57.107 28.2386 57.4214 28.8789C57.7386 29.5248 57.7516 30.4754 57.453 31.1981C57.2204 31.7611 56.6016 32.4454 56.0482 32.7517C55.2977 33.1668 54.9473 33.2041 51.7869 33.2052L48.8571 33.2063L48.8822 34.24L48.9073 35.2737L52.1695 35.2729C55.0919 35.2721 55.4875 35.2558 55.9679 35.1157C57.8038 34.5801 59.2034 33.2835 59.7892 31.5754C60.066 30.7685 60.0468 29.3225 59.7479 28.4668C59.3254 27.257 58.3189 26.1067 57.1459 25.4932C56.0464 24.9181 55.9709 24.9085 52.2365 24.8724L48.8626 24.8397V25.8959ZM43.5001 27.2236C44.1474 27.5092 44.7601 28.0845 45.1222 28.7464C45.3886 29.2336 45.4155 29.3515 45.418 30.0418C45.4205 30.7216 45.3916 30.8588 45.142 31.3498C44.7863 32.0492 44.2359 32.5696 43.5001 32.9018C42.9906 33.1318 42.8255 33.1641 42.1575 33.1641C41.4771 33.1641 41.332 33.1344 40.8003 32.8872C39.7903 32.4176 39.1117 31.5418 38.9225 30.4636C38.6934 29.1582 39.6539 27.6473 41.0423 27.1292C41.6975 26.8848 42.8312 26.9283 43.5001 27.2236ZM26.3104 29.0433C26.2776 29.0742 26.2508 29.5489 26.2508 30.0981V31.0966H29.1555H32.0602V30.0418V28.987H29.2151C27.6503 28.987 26.3432 29.0123 26.3104 29.0433ZM48.8626 30.0418V31.0966H51.7673H54.672V30.0418V28.987H51.7673H48.8626V30.0418Z" fill="#00ACA7"/>
<path fill-rule="evenodd" clip-rule="evenodd" d="M8.59656 21.0535C7.20017 21.2064 5.84338 21.6324 4.70876 22.2743C3.93013 22.7149 2.85084 23.5568 2.4046 24.0716L2.09375 24.4303H3.763H5.43216L6.07593 24.098C7.1604 23.5384 7.99525 23.3172 9.20914 23.268C9.86756 23.2413 10.5103 23.265 10.9073 23.3307C13.469 23.7547 15.7116 25.6057 16.509 27.9543C16.6549 28.3842 16.7743 28.7924 16.7743 28.8615C16.7743 28.9702 16.3517 28.987 13.6082 28.987H10.442L9.93343 29.9364C9.65377 30.4585 9.38941 30.9218 9.34588 30.9658C9.30244 31.01 9.26687 31.0764 9.26687 31.1135C9.26687 31.1506 10.9561 31.181 13.0206 31.181C16.1717 31.181 16.7743 31.1999 16.7743 31.2987C16.7743 31.3635 16.6893 31.6767 16.5853 31.9949C15.8074 34.3757 13.8654 36.12 11.3286 36.7162C9.61722 37.1184 7.87093 36.914 6.24529 36.1213L5.45093 35.734L3.77757 35.7569L2.10412 35.78L2.81268 36.4425C4.34099 37.8714 6.13706 38.7371 8.19438 39.0365C9.16659 39.1779 11.0988 39.0884 11.9928 38.8605C15.6358 37.9317 18.3606 35.1938 19.0483 31.7708C19.2278 30.8772 19.2267 29.2854 19.0459 28.3856C18.3169 24.7569 15.3718 21.9396 11.5213 21.1875C10.7203 21.0309 9.36822 20.9691 8.59656 21.0535ZM33.2193 30.084V35.3159H34.3365H35.4537V30.084V24.8522H34.3365H33.2193V30.084ZM40.9502 24.9399C38.955 25.326 37.2042 26.9262 36.7424 28.7856C36.6373 29.2089 36.6086 29.6305 36.6369 30.3372C36.67 31.1664 36.7152 31.402 36.9468 31.9566C37.5669 33.441 38.8069 34.5471 40.4475 35.0792C40.9482 35.2417 41.2189 35.2707 42.2014 35.2675C43.2504 35.2641 43.4285 35.2408 44.0336 35.0268C47.2418 33.8931 48.6535 30.6233 47.1876 27.7213C46.5579 26.4748 45.0452 25.3285 43.581 24.9885C42.9592 24.844 41.5772 24.8185 40.9502 24.9399ZM48.8599 25.8959V26.9521L52.055 26.978C55.1873 27.0035 55.2593 27.0079 55.7141 27.2021C56.3085 27.456 57.1042 28.2386 57.4186 28.8789C57.7358 29.5248 57.7488 30.4754 57.4503 31.1981C57.2176 31.7611 56.5988 32.4454 56.0454 32.7517C55.2949 33.1668 54.9446 33.2041 51.7841 33.2052L48.8543 33.2063L48.8794 34.24L48.9045 35.2737L52.1667 35.2729C55.0892 35.2721 55.4847 35.2558 55.9651 35.1157C57.8011 34.5801 59.2007 33.2835 59.7864 31.5754C60.0632 30.7685 60.044 29.3225 59.7452 28.4668C59.3226 27.257 58.3161 26.1067 57.1431 25.4932C56.0436 24.9181 55.9681 24.9085 52.2337 24.8724L48.8599 24.8397V25.8959ZM43.4974 27.2236C44.1446 27.5092 44.7574 28.0845 45.1194 28.7464C45.3859 29.2336 45.4128 29.3515 45.4153 30.0418C45.4178 30.7216 45.3888 30.8588 45.1392 31.3498C44.7836 32.0492 44.2331 32.5696 43.4974 32.9018C42.9878 33.1318 42.8228 33.1641 42.1547 33.1641C41.4744 33.1641 41.3292 33.1344 40.7975 32.8872C39.7875 32.4176 39.1089 31.5418 38.9197 30.4636C38.6906 29.1582 39.6511 27.6473 41.0396 27.1292C41.6947 26.8848 42.8284 26.9283 43.4974 27.2236ZM48.8599 30.0418V31.0966H51.7645H54.6692V30.0418V28.987H51.7645H48.8599V30.0418Z" fill="#008080"/>
<path fill-rule="evenodd" clip-rule="evenodd" d="M8.59415 21.0535C6.64748 21.2666 4.94409 21.9552 3.43687 23.1383C2.81947 23.623 2.20386 24.2425 2.20386 24.3791C2.20386 24.4072 2.92967 24.4303 3.8168 24.4303H5.42975L6.07351 24.098C7.15799 23.5384 7.99284 23.3172 9.20672 23.268C9.86515 23.2413 10.5079 23.265 10.9048 23.3307C13.4666 23.7547 15.7092 25.6057 16.5066 27.9543C16.6525 28.3842 16.7719 28.7924 16.7719 28.8615C16.7719 28.9702 16.3493 28.987 13.6057 28.987H10.4396L9.93101 29.9364C9.65136 30.4585 9.38699 30.9218 9.34347 30.9658C9.30003 31.01 9.26446 31.0764 9.26446 31.1135C9.26446 31.1506 10.9536 31.181 13.0182 31.181C16.1693 31.181 16.7719 31.1999 16.7719 31.2987C16.7719 31.3635 16.6868 31.6767 16.5829 31.9949C15.807 34.3696 13.8747 36.1092 11.338 36.7167C9.64582 37.122 7.87066 36.915 6.24681 36.1233L5.45638 35.7378H3.77507H2.09375L2.39458 36.0544C3.68283 37.4102 5.36504 38.3774 7.30018 38.8749C7.95673 39.0437 8.26668 39.0697 9.62196 39.0697C10.9772 39.0697 11.2872 39.0437 11.9437 38.8749C15.6433 37.9238 18.3545 35.2119 19.0459 31.7708C19.2254 30.8772 19.2243 29.2854 19.0435 28.3856C18.3149 24.7589 15.3672 21.9392 11.5189 21.1875C10.7179 21.0309 9.36581 20.9691 8.59415 21.0535ZM33.2169 30.084V35.3159H34.3341H35.4512V30.084V24.8522H34.3341H33.2169V30.084ZM40.9478 24.9399C39.9392 25.1351 38.7602 25.7729 38.0481 26.5087C36.9904 27.6013 36.5623 28.7681 36.6327 30.3665C36.6675 31.1575 36.7173 31.4111 36.9449 31.9566C37.5639 33.4408 38.8069 34.5494 40.445 35.0784C40.936 35.237 41.228 35.2696 42.1543 35.27C43.1486 35.2703 43.3498 35.2444 43.9831 35.0345C47.203 33.9676 48.6597 30.6405 47.1851 27.7213C46.5555 26.4748 45.0427 25.3285 43.5786 24.9885C42.9568 24.844 41.5747 24.8185 40.9478 24.9399ZM48.8574 25.8959V26.9521L52.0526 26.978C55.7821 27.0083 55.7791 27.0078 56.6761 27.8957C57.3924 28.6046 57.6569 29.1867 57.6517 30.0418C57.6448 31.1726 57.0875 32.151 56.1424 32.6919C55.3063 33.1703 55.0191 33.2041 51.7817 33.2052L48.8519 33.2063L48.877 34.24L48.9021 35.2737L52.1643 35.2729C55.0868 35.2722 55.4823 35.2558 55.9627 35.1157C57.7987 34.5801 59.1983 33.2835 59.784 31.5754C60.0608 30.7685 60.0416 29.3225 59.7427 28.4668C59.3202 27.257 58.3137 26.1067 57.1407 25.4932C56.0412 24.9181 55.9657 24.9085 52.2313 24.8724L48.8574 24.8397V25.8959ZM43.495 27.2236C44.1422 27.5092 44.755 28.0845 45.117 28.7465C45.3834 29.2336 45.4103 29.3515 45.4128 30.0418C45.4153 30.7216 45.3864 30.8588 45.1368 31.3498C44.7811 32.0492 44.2307 32.5696 43.495 32.9018C42.9854 33.1318 42.8204 33.1641 42.1523 33.1641C41.472 33.1641 41.3268 33.1344 40.7951 32.8872C39.7851 32.4176 39.1065 31.5418 38.9173 30.4636C38.6882 29.1582 39.6487 27.6473 41.0372 27.1292C41.6923 26.8848 42.826 26.9283 43.495 27.2236ZM48.8574 30.0418V31.0966H51.7621H54.6668V30.0418V28.987H51.7621H48.8574V30.0418Z" fill="#808080"/>
<path fill-rule="evenodd" clip-rule="evenodd" d="M8.59401 21.0529C6.64734 21.2659 4.94395 21.9545 3.43673 23.1377C2.81933 23.6224 2.20372 24.2418 2.20372 24.3784C2.20372 24.4065 2.91755 24.4298 3.79012 24.4302L5.37652 24.4308L6.27027 24.0087C7.48567 23.4347 8.30854 23.2479 9.61377 23.2495C11.187 23.2515 12.4594 23.6125 13.7006 24.4092C14.3986 24.8572 15.4851 25.9511 15.9025 26.6264C16.2127 27.1281 16.7718 28.5653 16.7718 28.8608C16.7718 28.9695 16.3491 28.9863 13.6056 28.9863H10.4394L9.93087 29.9357C9.65122 30.4578 9.38685 30.9211 9.34332 30.9652C9.29989 31.0093 9.26432 31.0757 9.26432 31.1128C9.26432 31.15 10.9535 31.1803 13.0181 31.1803C16.1691 31.1803 16.7718 31.1992 16.7718 31.298C16.7718 31.3628 16.6867 31.676 16.5828 31.9942C15.8069 34.3689 13.8745 36.1085 11.3378 36.716C9.64398 37.1218 7.8707 36.9145 6.24274 36.1206L5.44838 35.7333L3.77501 35.7562L2.10156 35.7793L2.81013 36.4418C4.84715 38.3464 7.23703 39.2109 10.1276 39.0889C12.4638 38.9903 14.4864 38.1731 16.2159 36.6292C18.1602 34.8935 19.1849 32.6495 19.1849 30.1273C19.1849 27.1063 17.8329 24.5535 15.2904 22.7735C13.401 21.4509 10.8786 20.8027 8.59401 21.0529ZM33.2167 30.0833V35.3152H34.3339H35.4511V30.0833V24.8515H34.3339H33.2167V30.0833ZM41.0817 24.9045C39.0129 25.2808 37.1827 26.9239 36.7378 28.8047C36.5192 29.7288 36.5986 31.1138 36.9151 31.8976C37.7083 33.8616 39.5865 35.1667 41.7916 35.2861C44.4408 35.4294 46.7517 33.9389 47.5366 31.5804C47.6998 31.0903 47.7385 30.7857 47.7324 30.0411C47.7196 28.4536 47.1745 27.2764 45.9703 26.2353C45.3438 25.6936 44.5952 25.2706 43.8789 25.0533C43.454 24.9246 41.5334 24.8223 41.0817 24.9045ZM48.8573 25.8952V26.9514L52.0524 26.9773C55.782 27.0076 55.779 27.0071 56.676 27.895C57.3922 28.6039 57.6568 29.186 57.6516 30.0411C57.6447 31.1719 57.0874 32.1503 56.1422 32.6912C55.3061 33.1696 55.019 33.2035 51.7815 33.2045L48.8518 33.2056L48.8769 34.2393L48.902 35.273L52.1642 35.2722C55.0866 35.2715 55.4822 35.2551 55.9626 35.115C57.4863 34.6706 58.7017 33.7217 59.3875 32.4415C60.9364 29.5501 59.4256 26.1232 56.1413 25.0779C55.6497 24.9214 55.3247 24.9044 52.2312 24.8731L48.8573 24.839V25.8952ZM43.5563 27.2397C44.1753 27.5404 44.8207 28.1659 45.1455 28.7799C45.3799 29.2231 45.4112 29.3704 45.4132 30.0411C45.4152 30.7165 45.385 30.8614 45.1406 31.3491C44.7881 32.0525 44.2425 32.569 43.5021 32.9003C42.9867 33.1308 42.8196 33.1634 42.1523 33.1634C41.4717 33.1634 41.3272 33.1338 40.7932 32.8857C39.3887 32.2328 38.6136 30.7459 38.9755 29.3987C39.2484 28.3829 40.0529 27.4967 41.037 27.1277C41.7058 26.877 42.9205 26.931 43.5563 27.2397ZM48.8573 30.0411V31.0959H51.762H54.6666V30.0411V28.9863H51.762H48.8573V30.0411Z" fill="#3C3C3C"/>
</svg>
